<mxfile host="app.diagrams.net" agent="Mozilla/5.0 (Windows NT 10.0; Win64; x64; rv:139.0) Gecko/20100101 Firefox/139.0" version="27.1.6">
  <diagram id="C5RBs43oDa-KdzZeNtuy" name="Page-1">
    <mxGraphModel dx="2065" dy="1645" grid="1" gridSize="10" guides="1" tooltips="1" connect="1" arrows="1" fold="1" page="1" pageScale="1" pageWidth="827" pageHeight="1169" math="0" shadow="0">
      <root>
        <mxCell id="WIyWlLk6GJQsqaUBKTNV-0" />
        <mxCell id="WIyWlLk6GJQsqaUBKTNV-1" parent="WIyWlLk6GJQsqaUBKTNV-0" />
        <mxCell id="zkfFHV4jXpPFQw0GAbJ--0" value="Person" style="swimlane;fontStyle=2;align=center;verticalAlign=top;childLayout=stackLayout;horizontal=1;startSize=26;horizontalStack=0;resizeParent=1;resizeLast=0;collapsible=1;marginBottom=0;rounded=0;shadow=0;strokeWidth=1;" parent="WIyWlLk6GJQsqaUBKTNV-1" vertex="1">
          <mxGeometry x="220" y="120" width="160" height="138" as="geometry">
            <mxRectangle x="230" y="140" width="160" height="26" as="alternateBounds" />
          </mxGeometry>
        </mxCell>
        <mxCell id="zkfFHV4jXpPFQw0GAbJ--1" value="Name" style="text;align=left;verticalAlign=top;spacingLeft=4;spacingRight=4;overflow=hidden;rotatable=0;points=[[0,0.5],[1,0.5]];portConstraint=eastwest;" parent="zkfFHV4jXpPFQw0GAbJ--0" vertex="1">
          <mxGeometry y="26" width="160" height="26" as="geometry" />
        </mxCell>
        <mxCell id="zkfFHV4jXpPFQw0GAbJ--2" value="Phone Number" style="text;align=left;verticalAlign=top;spacingLeft=4;spacingRight=4;overflow=hidden;rotatable=0;points=[[0,0.5],[1,0.5]];portConstraint=eastwest;rounded=0;shadow=0;html=0;" parent="zkfFHV4jXpPFQw0GAbJ--0" vertex="1">
          <mxGeometry y="52" width="160" height="26" as="geometry" />
        </mxCell>
        <mxCell id="zkfFHV4jXpPFQw0GAbJ--3" value="Email Address" style="text;align=left;verticalAlign=top;spacingLeft=4;spacingRight=4;overflow=hidden;rotatable=0;points=[[0,0.5],[1,0.5]];portConstraint=eastwest;rounded=0;shadow=0;html=0;" parent="zkfFHV4jXpPFQw0GAbJ--0" vertex="1">
          <mxGeometry y="78" width="160" height="26" as="geometry" />
        </mxCell>
        <mxCell id="zkfFHV4jXpPFQw0GAbJ--4" value="" style="line;html=1;strokeWidth=1;align=left;verticalAlign=middle;spacingTop=-1;spacingLeft=3;spacingRight=3;rotatable=0;labelPosition=right;points=[];portConstraint=eastwest;" parent="zkfFHV4jXpPFQw0GAbJ--0" vertex="1">
          <mxGeometry y="104" width="160" height="8" as="geometry" />
        </mxCell>
        <mxCell id="zkfFHV4jXpPFQw0GAbJ--5" value="Purchase Parking Pass" style="text;align=left;verticalAlign=top;spacingLeft=4;spacingRight=4;overflow=hidden;rotatable=0;points=[[0,0.5],[1,0.5]];portConstraint=eastwest;" parent="zkfFHV4jXpPFQw0GAbJ--0" vertex="1">
          <mxGeometry y="112" width="160" height="26" as="geometry" />
        </mxCell>
        <mxCell id="zkfFHV4jXpPFQw0GAbJ--6" value="Student" style="swimlane;fontStyle=0;align=center;verticalAlign=top;childLayout=stackLayout;horizontal=1;startSize=26;horizontalStack=0;resizeParent=1;resizeLast=0;collapsible=1;marginBottom=0;rounded=0;shadow=0;strokeWidth=1;" parent="WIyWlLk6GJQsqaUBKTNV-1" vertex="1">
          <mxGeometry x="120" y="360" width="160" height="138" as="geometry">
            <mxRectangle x="130" y="380" width="160" height="26" as="alternateBounds" />
          </mxGeometry>
        </mxCell>
        <mxCell id="zkfFHV4jXpPFQw0GAbJ--7" value="Student Number" style="text;align=left;verticalAlign=top;spacingLeft=4;spacingRight=4;overflow=hidden;rotatable=0;points=[[0,0.5],[1,0.5]];portConstraint=eastwest;" parent="zkfFHV4jXpPFQw0GAbJ--6" vertex="1">
          <mxGeometry y="26" width="160" height="26" as="geometry" />
        </mxCell>
        <mxCell id="zkfFHV4jXpPFQw0GAbJ--8" value="Average Mark" style="text;align=left;verticalAlign=top;spacingLeft=4;spacingRight=4;overflow=hidden;rotatable=0;points=[[0,0.5],[1,0.5]];portConstraint=eastwest;rounded=0;shadow=0;html=0;" parent="zkfFHV4jXpPFQw0GAbJ--6" vertex="1">
          <mxGeometry y="52" width="160" height="26" as="geometry" />
        </mxCell>
        <mxCell id="zkfFHV4jXpPFQw0GAbJ--9" value="" style="line;html=1;strokeWidth=1;align=left;verticalAlign=middle;spacingTop=-1;spacingLeft=3;spacingRight=3;rotatable=0;labelPosition=right;points=[];portConstraint=eastwest;" parent="zkfFHV4jXpPFQw0GAbJ--6" vertex="1">
          <mxGeometry y="78" width="160" height="8" as="geometry" />
        </mxCell>
        <mxCell id="zkfFHV4jXpPFQw0GAbJ--10" value="Is Eligible To Enroll" style="text;align=left;verticalAlign=top;spacingLeft=4;spacingRight=4;overflow=hidden;rotatable=0;points=[[0,0.5],[1,0.5]];portConstraint=eastwest;fontStyle=4" parent="zkfFHV4jXpPFQw0GAbJ--6" vertex="1">
          <mxGeometry y="86" width="160" height="26" as="geometry" />
        </mxCell>
        <mxCell id="zkfFHV4jXpPFQw0GAbJ--11" value="Get Seminars Taken" style="text;align=left;verticalAlign=top;spacingLeft=4;spacingRight=4;overflow=hidden;rotatable=0;points=[[0,0.5],[1,0.5]];portConstraint=eastwest;" parent="zkfFHV4jXpPFQw0GAbJ--6" vertex="1">
          <mxGeometry y="112" width="160" height="26" as="geometry" />
        </mxCell>
        <mxCell id="zkfFHV4jXpPFQw0GAbJ--12" value="" style="endArrow=block;endSize=10;endFill=0;shadow=0;strokeWidth=1;rounded=0;curved=0;edgeStyle=elbowEdgeStyle;elbow=vertical;" parent="WIyWlLk6GJQsqaUBKTNV-1" source="zkfFHV4jXpPFQw0GAbJ--6" target="zkfFHV4jXpPFQw0GAbJ--0" edge="1">
          <mxGeometry width="160" relative="1" as="geometry">
            <mxPoint x="200" y="203" as="sourcePoint" />
            <mxPoint x="200" y="203" as="targetPoint" />
          </mxGeometry>
        </mxCell>
        <mxCell id="zkfFHV4jXpPFQw0GAbJ--13" value="Professor" style="swimlane;fontStyle=0;align=center;verticalAlign=top;childLayout=stackLayout;horizontal=1;startSize=26;horizontalStack=0;resizeParent=1;resizeLast=0;collapsible=1;marginBottom=0;rounded=0;shadow=0;strokeWidth=1;" parent="WIyWlLk6GJQsqaUBKTNV-1" vertex="1">
          <mxGeometry x="330" y="360" width="160" height="70" as="geometry">
            <mxRectangle x="340" y="380" width="170" height="26" as="alternateBounds" />
          </mxGeometry>
        </mxCell>
        <mxCell id="zkfFHV4jXpPFQw0GAbJ--14" value="Salary" style="text;align=left;verticalAlign=top;spacingLeft=4;spacingRight=4;overflow=hidden;rotatable=0;points=[[0,0.5],[1,0.5]];portConstraint=eastwest;" parent="zkfFHV4jXpPFQw0GAbJ--13" vertex="1">
          <mxGeometry y="26" width="160" height="26" as="geometry" />
        </mxCell>
        <mxCell id="zkfFHV4jXpPFQw0GAbJ--15" value="" style="line;html=1;strokeWidth=1;align=left;verticalAlign=middle;spacingTop=-1;spacingLeft=3;spacingRight=3;rotatable=0;labelPosition=right;points=[];portConstraint=eastwest;" parent="zkfFHV4jXpPFQw0GAbJ--13" vertex="1">
          <mxGeometry y="52" width="160" height="8" as="geometry" />
        </mxCell>
        <mxCell id="zkfFHV4jXpPFQw0GAbJ--16" value="" style="endArrow=block;endSize=10;endFill=0;shadow=0;strokeWidth=1;rounded=0;curved=0;edgeStyle=elbowEdgeStyle;elbow=vertical;" parent="WIyWlLk6GJQsqaUBKTNV-1" source="zkfFHV4jXpPFQw0GAbJ--13" target="zkfFHV4jXpPFQw0GAbJ--0" edge="1">
          <mxGeometry width="160" relative="1" as="geometry">
            <mxPoint x="210" y="373" as="sourcePoint" />
            <mxPoint x="310" y="271" as="targetPoint" />
          </mxGeometry>
        </mxCell>
        <mxCell id="zkfFHV4jXpPFQw0GAbJ--17" value="Address" style="swimlane;fontStyle=0;align=center;verticalAlign=top;childLayout=stackLayout;horizontal=1;startSize=26;horizontalStack=0;resizeParent=1;resizeLast=0;collapsible=1;marginBottom=0;rounded=0;shadow=0;strokeWidth=1;" parent="WIyWlLk6GJQsqaUBKTNV-1" vertex="1">
          <mxGeometry x="508" y="120" width="160" height="216" as="geometry">
            <mxRectangle x="550" y="140" width="160" height="26" as="alternateBounds" />
          </mxGeometry>
        </mxCell>
        <mxCell id="zkfFHV4jXpPFQw0GAbJ--18" value="Street" style="text;align=left;verticalAlign=top;spacingLeft=4;spacingRight=4;overflow=hidden;rotatable=0;points=[[0,0.5],[1,0.5]];portConstraint=eastwest;" parent="zkfFHV4jXpPFQw0GAbJ--17" vertex="1">
          <mxGeometry y="26" width="160" height="26" as="geometry" />
        </mxCell>
        <mxCell id="zkfFHV4jXpPFQw0GAbJ--19" value="City" style="text;align=left;verticalAlign=top;spacingLeft=4;spacingRight=4;overflow=hidden;rotatable=0;points=[[0,0.5],[1,0.5]];portConstraint=eastwest;rounded=0;shadow=0;html=0;" parent="zkfFHV4jXpPFQw0GAbJ--17" vertex="1">
          <mxGeometry y="52" width="160" height="26" as="geometry" />
        </mxCell>
        <mxCell id="zkfFHV4jXpPFQw0GAbJ--20" value="State" style="text;align=left;verticalAlign=top;spacingLeft=4;spacingRight=4;overflow=hidden;rotatable=0;points=[[0,0.5],[1,0.5]];portConstraint=eastwest;rounded=0;shadow=0;html=0;" parent="zkfFHV4jXpPFQw0GAbJ--17" vertex="1">
          <mxGeometry y="78" width="160" height="26" as="geometry" />
        </mxCell>
        <mxCell id="zkfFHV4jXpPFQw0GAbJ--21" value="Postal Code" style="text;align=left;verticalAlign=top;spacingLeft=4;spacingRight=4;overflow=hidden;rotatable=0;points=[[0,0.5],[1,0.5]];portConstraint=eastwest;rounded=0;shadow=0;html=0;" parent="zkfFHV4jXpPFQw0GAbJ--17" vertex="1">
          <mxGeometry y="104" width="160" height="26" as="geometry" />
        </mxCell>
        <mxCell id="zkfFHV4jXpPFQw0GAbJ--22" value="Country" style="text;align=left;verticalAlign=top;spacingLeft=4;spacingRight=4;overflow=hidden;rotatable=0;points=[[0,0.5],[1,0.5]];portConstraint=eastwest;rounded=0;shadow=0;html=0;" parent="zkfFHV4jXpPFQw0GAbJ--17" vertex="1">
          <mxGeometry y="130" width="160" height="26" as="geometry" />
        </mxCell>
        <mxCell id="zkfFHV4jXpPFQw0GAbJ--23" value="" style="line;html=1;strokeWidth=1;align=left;verticalAlign=middle;spacingTop=-1;spacingLeft=3;spacingRight=3;rotatable=0;labelPosition=right;points=[];portConstraint=eastwest;" parent="zkfFHV4jXpPFQw0GAbJ--17" vertex="1">
          <mxGeometry y="156" width="160" height="8" as="geometry" />
        </mxCell>
        <mxCell id="zkfFHV4jXpPFQw0GAbJ--24" value="Validate" style="text;align=left;verticalAlign=top;spacingLeft=4;spacingRight=4;overflow=hidden;rotatable=0;points=[[0,0.5],[1,0.5]];portConstraint=eastwest;" parent="zkfFHV4jXpPFQw0GAbJ--17" vertex="1">
          <mxGeometry y="164" width="160" height="26" as="geometry" />
        </mxCell>
        <mxCell id="zkfFHV4jXpPFQw0GAbJ--25" value="Output As Label" style="text;align=left;verticalAlign=top;spacingLeft=4;spacingRight=4;overflow=hidden;rotatable=0;points=[[0,0.5],[1,0.5]];portConstraint=eastwest;" parent="zkfFHV4jXpPFQw0GAbJ--17" vertex="1">
          <mxGeometry y="190" width="160" height="26" as="geometry" />
        </mxCell>
        <mxCell id="zkfFHV4jXpPFQw0GAbJ--26" value="" style="endArrow=open;shadow=0;strokeWidth=1;rounded=0;curved=0;endFill=1;edgeStyle=elbowEdgeStyle;elbow=vertical;" parent="WIyWlLk6GJQsqaUBKTNV-1" source="zkfFHV4jXpPFQw0GAbJ--0" target="zkfFHV4jXpPFQw0GAbJ--17" edge="1">
          <mxGeometry x="0.5" y="41" relative="1" as="geometry">
            <mxPoint x="380" y="192" as="sourcePoint" />
            <mxPoint x="540" y="192" as="targetPoint" />
            <mxPoint x="-40" y="32" as="offset" />
          </mxGeometry>
        </mxCell>
        <mxCell id="zkfFHV4jXpPFQw0GAbJ--27" value="0..1" style="resizable=0;align=left;verticalAlign=bottom;labelBackgroundColor=none;fontSize=12;" parent="zkfFHV4jXpPFQw0GAbJ--26" connectable="0" vertex="1">
          <mxGeometry x="-1" relative="1" as="geometry">
            <mxPoint y="4" as="offset" />
          </mxGeometry>
        </mxCell>
        <mxCell id="zkfFHV4jXpPFQw0GAbJ--28" value="1" style="resizable=0;align=right;verticalAlign=bottom;labelBackgroundColor=none;fontSize=12;" parent="zkfFHV4jXpPFQw0GAbJ--26" connectable="0" vertex="1">
          <mxGeometry x="1" relative="1" as="geometry">
            <mxPoint x="-7" y="4" as="offset" />
          </mxGeometry>
        </mxCell>
        <mxCell id="zkfFHV4jXpPFQw0GAbJ--29" value="lives at" style="text;html=1;resizable=0;points=[];;align=center;verticalAlign=middle;labelBackgroundColor=none;rounded=0;shadow=0;strokeWidth=1;fontSize=12;" parent="zkfFHV4jXpPFQw0GAbJ--26" vertex="1" connectable="0">
          <mxGeometry x="0.5" y="49" relative="1" as="geometry">
            <mxPoint x="-38" y="40" as="offset" />
          </mxGeometry>
        </mxCell>
        <mxCell id="whq1Z1M9XGtjdscwXclZ-0" value="Блюда" style="rounded=0;whiteSpace=wrap;html=1;" vertex="1" parent="WIyWlLk6GJQsqaUBKTNV-1">
          <mxGeometry x="850" y="1330" width="120" height="60" as="geometry" />
        </mxCell>
        <mxCell id="whq1Z1M9XGtjdscwXclZ-1" value="Номер_блюда" style="rounded=1;whiteSpace=wrap;html=1;" vertex="1" parent="WIyWlLk6GJQsqaUBKTNV-1">
          <mxGeometry x="760" y="1260" width="90" height="40" as="geometry" />
        </mxCell>
        <mxCell id="whq1Z1M9XGtjdscwXclZ-2" value="&lt;font style=&quot;font-size: 10px;&quot;&gt;Название_блюда&lt;/font&gt;" style="rounded=1;whiteSpace=wrap;html=1;" vertex="1" parent="WIyWlLk6GJQsqaUBKTNV-1">
          <mxGeometry x="874" y="1260" width="90" height="40" as="geometry" />
        </mxCell>
        <mxCell id="whq1Z1M9XGtjdscwXclZ-3" value="&lt;font style=&quot;font-size: 10px;&quot;&gt;Цена&lt;/font&gt;" style="rounded=1;whiteSpace=wrap;html=1;" vertex="1" parent="WIyWlLk6GJQsqaUBKTNV-1">
          <mxGeometry x="980" y="1260" width="90" height="40" as="geometry" />
        </mxCell>
        <mxCell id="whq1Z1M9XGtjdscwXclZ-4" value="&lt;font style=&quot;font-size: 10px;&quot;&gt;Номер_категории&lt;/font&gt;" style="rounded=1;whiteSpace=wrap;html=1;" vertex="1" parent="WIyWlLk6GJQsqaUBKTNV-1">
          <mxGeometry x="1090" y="1260" width="90" height="40" as="geometry" />
        </mxCell>
        <mxCell id="whq1Z1M9XGtjdscwXclZ-5" style="edgeStyle=orthogonalEdgeStyle;rounded=0;orthogonalLoop=1;jettySize=auto;html=1;entryX=0.358;entryY=1.047;entryDx=0;entryDy=0;entryPerimeter=0;endArrow=none;startFill=0;" edge="1" parent="WIyWlLk6GJQsqaUBKTNV-1" source="whq1Z1M9XGtjdscwXclZ-0" target="whq1Z1M9XGtjdscwXclZ-1">
          <mxGeometry relative="1" as="geometry">
            <Array as="points">
              <mxPoint x="792" y="1360" />
              <mxPoint x="792" y="1320" />
            </Array>
          </mxGeometry>
        </mxCell>
        <mxCell id="whq1Z1M9XGtjdscwXclZ-6" style="edgeStyle=orthogonalEdgeStyle;rounded=0;orthogonalLoop=1;jettySize=auto;html=1;entryX=0.4;entryY=1;entryDx=0;entryDy=0;entryPerimeter=0;endArrow=none;startFill=0;" edge="1" parent="WIyWlLk6GJQsqaUBKTNV-1" source="whq1Z1M9XGtjdscwXclZ-0" target="whq1Z1M9XGtjdscwXclZ-2">
          <mxGeometry relative="1" as="geometry" />
        </mxCell>
        <mxCell id="whq1Z1M9XGtjdscwXclZ-7" style="edgeStyle=orthogonalEdgeStyle;rounded=0;orthogonalLoop=1;jettySize=auto;html=1;entryX=0.469;entryY=1.033;entryDx=0;entryDy=0;entryPerimeter=0;endArrow=none;startFill=0;" edge="1" parent="WIyWlLk6GJQsqaUBKTNV-1" source="whq1Z1M9XGtjdscwXclZ-0" target="whq1Z1M9XGtjdscwXclZ-3">
          <mxGeometry relative="1" as="geometry" />
        </mxCell>
        <mxCell id="whq1Z1M9XGtjdscwXclZ-8" style="edgeStyle=orthogonalEdgeStyle;rounded=0;orthogonalLoop=1;jettySize=auto;html=1;entryX=0.27;entryY=1.089;entryDx=0;entryDy=0;entryPerimeter=0;endArrow=none;startFill=0;" edge="1" parent="WIyWlLk6GJQsqaUBKTNV-1" source="whq1Z1M9XGtjdscwXclZ-0" target="whq1Z1M9XGtjdscwXclZ-4">
          <mxGeometry relative="1" as="geometry" />
        </mxCell>
        <mxCell id="whq1Z1M9XGtjdscwXclZ-9" value="Состав заказа" style="rounded=0;whiteSpace=wrap;html=1;" vertex="1" parent="WIyWlLk6GJQsqaUBKTNV-1">
          <mxGeometry x="930" y="1540" width="120" height="60" as="geometry" />
        </mxCell>
        <mxCell id="whq1Z1M9XGtjdscwXclZ-10" value="Номер_блюда" style="rounded=1;whiteSpace=wrap;html=1;" vertex="1" parent="WIyWlLk6GJQsqaUBKTNV-1">
          <mxGeometry x="840" y="1450" width="90" height="40" as="geometry" />
        </mxCell>
        <mxCell id="whq1Z1M9XGtjdscwXclZ-11" value="&lt;div&gt;&lt;font style=&quot;font-size: 10px;&quot;&gt;Название_заказа&lt;/font&gt;&lt;/div&gt;" style="rounded=1;whiteSpace=wrap;html=1;" vertex="1" parent="WIyWlLk6GJQsqaUBKTNV-1">
          <mxGeometry x="954" y="1450" width="90" height="40" as="geometry" />
        </mxCell>
        <mxCell id="whq1Z1M9XGtjdscwXclZ-12" value="Количество" style="rounded=1;whiteSpace=wrap;html=1;" vertex="1" parent="WIyWlLk6GJQsqaUBKTNV-1">
          <mxGeometry x="1060" y="1450" width="90" height="40" as="geometry" />
        </mxCell>
        <mxCell id="whq1Z1M9XGtjdscwXclZ-13" value="Общая_цена" style="rounded=1;whiteSpace=wrap;html=1;" vertex="1" parent="WIyWlLk6GJQsqaUBKTNV-1">
          <mxGeometry x="1170" y="1450" width="90" height="40" as="geometry" />
        </mxCell>
        <mxCell id="whq1Z1M9XGtjdscwXclZ-14" style="edgeStyle=orthogonalEdgeStyle;rounded=0;orthogonalLoop=1;jettySize=auto;html=1;entryX=0.358;entryY=1.047;entryDx=0;entryDy=0;entryPerimeter=0;endArrow=none;startFill=0;" edge="1" parent="WIyWlLk6GJQsqaUBKTNV-1" source="whq1Z1M9XGtjdscwXclZ-9" target="whq1Z1M9XGtjdscwXclZ-10">
          <mxGeometry relative="1" as="geometry">
            <Array as="points">
              <mxPoint x="872" y="1550" />
              <mxPoint x="872" y="1510" />
            </Array>
          </mxGeometry>
        </mxCell>
        <mxCell id="whq1Z1M9XGtjdscwXclZ-15" style="edgeStyle=orthogonalEdgeStyle;rounded=0;orthogonalLoop=1;jettySize=auto;html=1;entryX=0.4;entryY=1;entryDx=0;entryDy=0;entryPerimeter=0;endArrow=none;startFill=0;" edge="1" parent="WIyWlLk6GJQsqaUBKTNV-1" source="whq1Z1M9XGtjdscwXclZ-9" target="whq1Z1M9XGtjdscwXclZ-11">
          <mxGeometry relative="1" as="geometry" />
        </mxCell>
        <mxCell id="whq1Z1M9XGtjdscwXclZ-16" style="edgeStyle=orthogonalEdgeStyle;rounded=0;orthogonalLoop=1;jettySize=auto;html=1;entryX=0.469;entryY=1.033;entryDx=0;entryDy=0;entryPerimeter=0;endArrow=none;startFill=0;" edge="1" parent="WIyWlLk6GJQsqaUBKTNV-1" source="whq1Z1M9XGtjdscwXclZ-9" target="whq1Z1M9XGtjdscwXclZ-12">
          <mxGeometry relative="1" as="geometry" />
        </mxCell>
        <mxCell id="whq1Z1M9XGtjdscwXclZ-17" style="edgeStyle=orthogonalEdgeStyle;rounded=0;orthogonalLoop=1;jettySize=auto;html=1;entryX=0.27;entryY=1.089;entryDx=0;entryDy=0;entryPerimeter=0;endArrow=none;startFill=0;" edge="1" parent="WIyWlLk6GJQsqaUBKTNV-1" source="whq1Z1M9XGtjdscwXclZ-9" target="whq1Z1M9XGtjdscwXclZ-13">
          <mxGeometry relative="1" as="geometry" />
        </mxCell>
        <mxCell id="whq1Z1M9XGtjdscwXclZ-18" style="edgeStyle=orthogonalEdgeStyle;rounded=0;orthogonalLoop=1;jettySize=auto;html=1;entryX=0.5;entryY=1;entryDx=0;entryDy=0;" edge="1" parent="WIyWlLk6GJQsqaUBKTNV-1" source="whq1Z1M9XGtjdscwXclZ-20" target="whq1Z1M9XGtjdscwXclZ-0">
          <mxGeometry relative="1" as="geometry">
            <Array as="points">
              <mxPoint x="910" y="1440" />
            </Array>
          </mxGeometry>
        </mxCell>
        <mxCell id="whq1Z1M9XGtjdscwXclZ-19" style="edgeStyle=orthogonalEdgeStyle;rounded=0;orthogonalLoop=1;jettySize=auto;html=1;entryX=0.5;entryY=1;entryDx=0;entryDy=0;" edge="1" parent="WIyWlLk6GJQsqaUBKTNV-1" source="whq1Z1M9XGtjdscwXclZ-20" target="whq1Z1M9XGtjdscwXclZ-9">
          <mxGeometry relative="1" as="geometry">
            <Array as="points">
              <mxPoint x="760" y="1620" />
              <mxPoint x="990" y="1620" />
            </Array>
          </mxGeometry>
        </mxCell>
        <mxCell id="whq1Z1M9XGtjdscwXclZ-20" value="в составе" style="rhombus;whiteSpace=wrap;html=1;" vertex="1" parent="WIyWlLk6GJQsqaUBKTNV-1">
          <mxGeometry x="720" y="1420" width="80" height="80" as="geometry" />
        </mxCell>
        <mxCell id="whq1Z1M9XGtjdscwXclZ-21" style="edgeStyle=orthogonalEdgeStyle;rounded=0;orthogonalLoop=1;jettySize=auto;html=1;entryX=0.5;entryY=1;entryDx=0;entryDy=0;endArrow=none;startFill=0;" edge="1" parent="WIyWlLk6GJQsqaUBKTNV-1" source="whq1Z1M9XGtjdscwXclZ-24" target="whq1Z1M9XGtjdscwXclZ-25">
          <mxGeometry relative="1" as="geometry" />
        </mxCell>
        <mxCell id="whq1Z1M9XGtjdscwXclZ-22" style="edgeStyle=orthogonalEdgeStyle;rounded=0;orthogonalLoop=1;jettySize=auto;html=1;entryX=0.5;entryY=1;entryDx=0;entryDy=0;endArrow=none;startFill=0;" edge="1" parent="WIyWlLk6GJQsqaUBKTNV-1" source="whq1Z1M9XGtjdscwXclZ-24" target="whq1Z1M9XGtjdscwXclZ-26">
          <mxGeometry relative="1" as="geometry" />
        </mxCell>
        <mxCell id="whq1Z1M9XGtjdscwXclZ-23" style="edgeStyle=orthogonalEdgeStyle;rounded=0;orthogonalLoop=1;jettySize=auto;html=1;entryX=0.5;entryY=1;entryDx=0;entryDy=0;endArrow=none;startFill=0;" edge="1" parent="WIyWlLk6GJQsqaUBKTNV-1" source="whq1Z1M9XGtjdscwXclZ-24" target="whq1Z1M9XGtjdscwXclZ-27">
          <mxGeometry relative="1" as="geometry" />
        </mxCell>
        <mxCell id="whq1Z1M9XGtjdscwXclZ-24" value="Склад" style="rounded=0;whiteSpace=wrap;html=1;" vertex="1" parent="WIyWlLk6GJQsqaUBKTNV-1">
          <mxGeometry x="1010" y="1050" width="120" height="60" as="geometry" />
        </mxCell>
        <mxCell id="whq1Z1M9XGtjdscwXclZ-25" value="Нумерация" style="rounded=1;whiteSpace=wrap;html=1;" vertex="1" parent="WIyWlLk6GJQsqaUBKTNV-1">
          <mxGeometry x="850" y="950" width="120" height="60" as="geometry" />
        </mxCell>
        <mxCell id="whq1Z1M9XGtjdscwXclZ-26" value="Номер блюда" style="rounded=1;whiteSpace=wrap;html=1;" vertex="1" parent="WIyWlLk6GJQsqaUBKTNV-1">
          <mxGeometry x="1010" y="950" width="120" height="60" as="geometry" />
        </mxCell>
        <mxCell id="whq1Z1M9XGtjdscwXclZ-27" value="Количество_склад" style="rounded=1;whiteSpace=wrap;html=1;" vertex="1" parent="WIyWlLk6GJQsqaUBKTNV-1">
          <mxGeometry x="1155" y="950" width="120" height="60" as="geometry" />
        </mxCell>
        <mxCell id="whq1Z1M9XGtjdscwXclZ-28" style="edgeStyle=orthogonalEdgeStyle;rounded=0;orthogonalLoop=1;jettySize=auto;html=1;entryX=1;entryY=0.75;entryDx=0;entryDy=0;" edge="1" parent="WIyWlLk6GJQsqaUBKTNV-1" source="whq1Z1M9XGtjdscwXclZ-30" target="whq1Z1M9XGtjdscwXclZ-0">
          <mxGeometry relative="1" as="geometry" />
        </mxCell>
        <mxCell id="whq1Z1M9XGtjdscwXclZ-29" style="edgeStyle=orthogonalEdgeStyle;rounded=0;orthogonalLoop=1;jettySize=auto;html=1;" edge="1" parent="WIyWlLk6GJQsqaUBKTNV-1" source="whq1Z1M9XGtjdscwXclZ-30" target="whq1Z1M9XGtjdscwXclZ-24">
          <mxGeometry relative="1" as="geometry">
            <Array as="points">
              <mxPoint x="1320" y="1230" />
              <mxPoint x="1070" y="1230" />
            </Array>
          </mxGeometry>
        </mxCell>
        <mxCell id="whq1Z1M9XGtjdscwXclZ-30" value="Находятся" style="rhombus;whiteSpace=wrap;html=1;" vertex="1" parent="WIyWlLk6GJQsqaUBKTNV-1">
          <mxGeometry x="1280" y="1320" width="80" height="80" as="geometry" />
        </mxCell>
        <mxCell id="whq1Z1M9XGtjdscwXclZ-31" style="edgeStyle=orthogonalEdgeStyle;rounded=0;orthogonalLoop=1;jettySize=auto;html=1;entryX=0.5;entryY=1;entryDx=0;entryDy=0;endArrow=none;startFill=0;" edge="1" parent="WIyWlLk6GJQsqaUBKTNV-1" source="whq1Z1M9XGtjdscwXclZ-34" target="whq1Z1M9XGtjdscwXclZ-35">
          <mxGeometry relative="1" as="geometry" />
        </mxCell>
        <mxCell id="whq1Z1M9XGtjdscwXclZ-32" style="edgeStyle=orthogonalEdgeStyle;rounded=0;orthogonalLoop=1;jettySize=auto;html=1;entryX=0.5;entryY=1;entryDx=0;entryDy=0;endArrow=none;startFill=0;" edge="1" parent="WIyWlLk6GJQsqaUBKTNV-1" source="whq1Z1M9XGtjdscwXclZ-34" target="whq1Z1M9XGtjdscwXclZ-36">
          <mxGeometry relative="1" as="geometry" />
        </mxCell>
        <mxCell id="whq1Z1M9XGtjdscwXclZ-33" style="edgeStyle=orthogonalEdgeStyle;rounded=0;orthogonalLoop=1;jettySize=auto;html=1;entryX=0;entryY=0.75;entryDx=0;entryDy=0;startArrow=classic;startFill=1;" edge="1" parent="WIyWlLk6GJQsqaUBKTNV-1" source="whq1Z1M9XGtjdscwXclZ-34" target="whq1Z1M9XGtjdscwXclZ-0">
          <mxGeometry relative="1" as="geometry">
            <Array as="points">
              <mxPoint x="700" y="1375" />
            </Array>
          </mxGeometry>
        </mxCell>
        <mxCell id="whq1Z1M9XGtjdscwXclZ-34" value="Категории_блюд" style="rounded=0;whiteSpace=wrap;html=1;" vertex="1" parent="WIyWlLk6GJQsqaUBKTNV-1">
          <mxGeometry x="640" y="1120" width="120" height="60" as="geometry" />
        </mxCell>
        <mxCell id="whq1Z1M9XGtjdscwXclZ-35" value="Номер категории" style="rounded=1;whiteSpace=wrap;html=1;" vertex="1" parent="WIyWlLk6GJQsqaUBKTNV-1">
          <mxGeometry x="570" y="1030" width="80" height="40" as="geometry" />
        </mxCell>
        <mxCell id="whq1Z1M9XGtjdscwXclZ-36" value="Название категории" style="rounded=1;whiteSpace=wrap;html=1;" vertex="1" parent="WIyWlLk6GJQsqaUBKTNV-1">
          <mxGeometry x="670" y="1030" width="80" height="40" as="geometry" />
        </mxCell>
        <mxCell id="whq1Z1M9XGtjdscwXclZ-37" value="Формирует" style="rhombus;whiteSpace=wrap;html=1;" vertex="1" parent="WIyWlLk6GJQsqaUBKTNV-1">
          <mxGeometry x="950" y="1670" width="80" height="80" as="geometry" />
        </mxCell>
        <mxCell id="whq1Z1M9XGtjdscwXclZ-38" style="edgeStyle=orthogonalEdgeStyle;rounded=0;orthogonalLoop=1;jettySize=auto;html=1;entryX=1;entryY=0.5;entryDx=0;entryDy=0;endArrow=none;startFill=0;" edge="1" parent="WIyWlLk6GJQsqaUBKTNV-1" source="whq1Z1M9XGtjdscwXclZ-41" target="whq1Z1M9XGtjdscwXclZ-47">
          <mxGeometry relative="1" as="geometry" />
        </mxCell>
        <mxCell id="whq1Z1M9XGtjdscwXclZ-39" style="edgeStyle=orthogonalEdgeStyle;rounded=0;orthogonalLoop=1;jettySize=auto;html=1;entryX=0;entryY=0.5;entryDx=0;entryDy=0;endArrow=none;startFill=0;" edge="1" parent="WIyWlLk6GJQsqaUBKTNV-1" source="whq1Z1M9XGtjdscwXclZ-41" target="whq1Z1M9XGtjdscwXclZ-48">
          <mxGeometry relative="1" as="geometry" />
        </mxCell>
        <mxCell id="whq1Z1M9XGtjdscwXclZ-40" style="edgeStyle=orthogonalEdgeStyle;rounded=0;orthogonalLoop=1;jettySize=auto;html=1;entryX=0.5;entryY=0;entryDx=0;entryDy=0;endArrow=none;startFill=0;" edge="1" parent="WIyWlLk6GJQsqaUBKTNV-1" source="whq1Z1M9XGtjdscwXclZ-41" target="whq1Z1M9XGtjdscwXclZ-44">
          <mxGeometry relative="1" as="geometry" />
        </mxCell>
        <mxCell id="whq1Z1M9XGtjdscwXclZ-41" value="Заказы" style="rounded=0;whiteSpace=wrap;html=1;" vertex="1" parent="WIyWlLk6GJQsqaUBKTNV-1">
          <mxGeometry x="930" y="1800" width="110" height="50" as="geometry" />
        </mxCell>
        <mxCell id="whq1Z1M9XGtjdscwXclZ-42" value="Номер_заказа" style="rounded=1;whiteSpace=wrap;html=1;" vertex="1" parent="WIyWlLk6GJQsqaUBKTNV-1">
          <mxGeometry x="770" y="1900" width="90" height="40" as="geometry" />
        </mxCell>
        <mxCell id="whq1Z1M9XGtjdscwXclZ-43" value="Номер_стола" style="rounded=1;whiteSpace=wrap;html=1;" vertex="1" parent="WIyWlLk6GJQsqaUBKTNV-1">
          <mxGeometry x="900" y="1900" width="90" height="40" as="geometry" />
        </mxCell>
        <mxCell id="whq1Z1M9XGtjdscwXclZ-44" value="Номер_сотрудника" style="rounded=1;whiteSpace=wrap;html=1;" vertex="1" parent="WIyWlLk6GJQsqaUBKTNV-1">
          <mxGeometry x="1010" y="1900" width="110" height="40" as="geometry" />
        </mxCell>
        <mxCell id="whq1Z1M9XGtjdscwXclZ-45" value="&lt;div&gt;Дата&lt;/div&gt;" style="rounded=1;whiteSpace=wrap;html=1;" vertex="1" parent="WIyWlLk6GJQsqaUBKTNV-1">
          <mxGeometry x="1140" y="1900" width="110" height="40" as="geometry" />
        </mxCell>
        <mxCell id="whq1Z1M9XGtjdscwXclZ-46" value="Время" style="rounded=1;whiteSpace=wrap;html=1;" vertex="1" parent="WIyWlLk6GJQsqaUBKTNV-1">
          <mxGeometry x="1265" y="1900" width="110" height="40" as="geometry" />
        </mxCell>
        <mxCell id="whq1Z1M9XGtjdscwXclZ-47" value="Статус" style="rounded=1;whiteSpace=wrap;html=1;" vertex="1" parent="WIyWlLk6GJQsqaUBKTNV-1">
          <mxGeometry x="764" y="1805" width="110" height="40" as="geometry" />
        </mxCell>
        <mxCell id="whq1Z1M9XGtjdscwXclZ-48" value="Сумма" style="rounded=1;whiteSpace=wrap;html=1;" vertex="1" parent="WIyWlLk6GJQsqaUBKTNV-1">
          <mxGeometry x="1080" y="1805" width="110" height="40" as="geometry" />
        </mxCell>
        <mxCell id="whq1Z1M9XGtjdscwXclZ-49" value="Номер чека" style="rounded=1;whiteSpace=wrap;html=1;" vertex="1" parent="WIyWlLk6GJQsqaUBKTNV-1">
          <mxGeometry x="810" y="1980" width="110" height="40" as="geometry" />
        </mxCell>
        <mxCell id="whq1Z1M9XGtjdscwXclZ-50" style="edgeStyle=orthogonalEdgeStyle;rounded=0;orthogonalLoop=1;jettySize=auto;html=1;entryX=0.667;entryY=0.033;entryDx=0;entryDy=0;entryPerimeter=0;endArrow=none;startFill=0;" edge="1" parent="WIyWlLk6GJQsqaUBKTNV-1" source="whq1Z1M9XGtjdscwXclZ-41" target="whq1Z1M9XGtjdscwXclZ-42">
          <mxGeometry relative="1" as="geometry">
            <Array as="points">
              <mxPoint x="985" y="1860" />
              <mxPoint x="830" y="1860" />
            </Array>
          </mxGeometry>
        </mxCell>
        <mxCell id="whq1Z1M9XGtjdscwXclZ-51" style="edgeStyle=orthogonalEdgeStyle;rounded=0;orthogonalLoop=1;jettySize=auto;html=1;entryX=0.576;entryY=-0.005;entryDx=0;entryDy=0;entryPerimeter=0;endArrow=none;startFill=0;" edge="1" parent="WIyWlLk6GJQsqaUBKTNV-1" source="whq1Z1M9XGtjdscwXclZ-41" target="whq1Z1M9XGtjdscwXclZ-43">
          <mxGeometry relative="1" as="geometry" />
        </mxCell>
        <mxCell id="whq1Z1M9XGtjdscwXclZ-52" style="edgeStyle=orthogonalEdgeStyle;rounded=0;orthogonalLoop=1;jettySize=auto;html=1;entryX=0.485;entryY=0.081;entryDx=0;entryDy=0;entryPerimeter=0;endArrow=none;startFill=0;" edge="1" parent="WIyWlLk6GJQsqaUBKTNV-1" source="whq1Z1M9XGtjdscwXclZ-41" target="whq1Z1M9XGtjdscwXclZ-45">
          <mxGeometry relative="1" as="geometry">
            <Array as="points">
              <mxPoint x="985" y="1860" />
              <mxPoint x="1193" y="1860" />
            </Array>
          </mxGeometry>
        </mxCell>
        <mxCell id="whq1Z1M9XGtjdscwXclZ-53" style="edgeStyle=orthogonalEdgeStyle;rounded=0;orthogonalLoop=1;jettySize=auto;html=1;entryX=0.589;entryY=-0.024;entryDx=0;entryDy=0;entryPerimeter=0;endArrow=none;startFill=0;" edge="1" parent="WIyWlLk6GJQsqaUBKTNV-1" source="whq1Z1M9XGtjdscwXclZ-41" target="whq1Z1M9XGtjdscwXclZ-49">
          <mxGeometry relative="1" as="geometry">
            <Array as="points">
              <mxPoint x="985" y="1870" />
              <mxPoint x="870" y="1870" />
              <mxPoint x="870" y="1979" />
            </Array>
          </mxGeometry>
        </mxCell>
        <mxCell id="whq1Z1M9XGtjdscwXclZ-54" style="edgeStyle=orthogonalEdgeStyle;rounded=0;orthogonalLoop=1;jettySize=auto;html=1;entryX=0.667;entryY=1.028;entryDx=0;entryDy=0;entryPerimeter=0;" edge="1" parent="WIyWlLk6GJQsqaUBKTNV-1" source="whq1Z1M9XGtjdscwXclZ-37" target="whq1Z1M9XGtjdscwXclZ-9">
          <mxGeometry relative="1" as="geometry" />
        </mxCell>
        <mxCell id="whq1Z1M9XGtjdscwXclZ-55" style="edgeStyle=orthogonalEdgeStyle;rounded=0;orthogonalLoop=1;jettySize=auto;html=1;exitX=0.5;exitY=1;exitDx=0;exitDy=0;entryX=0.541;entryY=0.002;entryDx=0;entryDy=0;entryPerimeter=0;" edge="1" parent="WIyWlLk6GJQsqaUBKTNV-1" source="whq1Z1M9XGtjdscwXclZ-37" target="whq1Z1M9XGtjdscwXclZ-41">
          <mxGeometry relative="1" as="geometry" />
        </mxCell>
        <mxCell id="whq1Z1M9XGtjdscwXclZ-56" style="edgeStyle=orthogonalEdgeStyle;rounded=0;orthogonalLoop=1;jettySize=auto;html=1;entryX=0;entryY=0.5;entryDx=0;entryDy=0;" edge="1" parent="WIyWlLk6GJQsqaUBKTNV-1" source="whq1Z1M9XGtjdscwXclZ-57" target="whq1Z1M9XGtjdscwXclZ-61">
          <mxGeometry relative="1" as="geometry" />
        </mxCell>
        <mxCell id="whq1Z1M9XGtjdscwXclZ-57" value="Соответствует" style="rhombus;whiteSpace=wrap;html=1;" vertex="1" parent="WIyWlLk6GJQsqaUBKTNV-1">
          <mxGeometry x="1155" y="1670" width="80" height="80" as="geometry" />
        </mxCell>
        <mxCell id="whq1Z1M9XGtjdscwXclZ-58" style="edgeStyle=orthogonalEdgeStyle;rounded=0;orthogonalLoop=1;jettySize=auto;html=1;entryX=0.22;entryY=-0.02;entryDx=0;entryDy=0;entryPerimeter=0;endArrow=none;startFill=0;" edge="1" parent="WIyWlLk6GJQsqaUBKTNV-1">
          <mxGeometry relative="1" as="geometry">
            <mxPoint x="1020" y="1850" as="sourcePoint" />
            <mxPoint x="1324.2" y="1899.1999999999998" as="targetPoint" />
            <Array as="points">
              <mxPoint x="1020" y="1860" />
              <mxPoint x="1324" y="1860" />
            </Array>
          </mxGeometry>
        </mxCell>
        <mxCell id="whq1Z1M9XGtjdscwXclZ-59" style="edgeStyle=orthogonalEdgeStyle;rounded=0;orthogonalLoop=1;jettySize=auto;html=1;entryX=0;entryY=0.5;entryDx=0;entryDy=0;endArrow=none;startFill=0;" edge="1" parent="WIyWlLk6GJQsqaUBKTNV-1" source="whq1Z1M9XGtjdscwXclZ-61" target="whq1Z1M9XGtjdscwXclZ-63">
          <mxGeometry relative="1" as="geometry" />
        </mxCell>
        <mxCell id="whq1Z1M9XGtjdscwXclZ-60" style="edgeStyle=orthogonalEdgeStyle;rounded=0;orthogonalLoop=1;jettySize=auto;html=1;entryX=0;entryY=0.5;entryDx=0;entryDy=0;endArrow=none;startFill=0;" edge="1" parent="WIyWlLk6GJQsqaUBKTNV-1" source="whq1Z1M9XGtjdscwXclZ-61" target="whq1Z1M9XGtjdscwXclZ-64">
          <mxGeometry relative="1" as="geometry" />
        </mxCell>
        <mxCell id="whq1Z1M9XGtjdscwXclZ-61" value="Чек" style="rounded=0;whiteSpace=wrap;html=1;" vertex="1" parent="WIyWlLk6GJQsqaUBKTNV-1">
          <mxGeometry x="1340" y="1700" width="120" height="60" as="geometry" />
        </mxCell>
        <mxCell id="whq1Z1M9XGtjdscwXclZ-62" value="Номер_чека" style="rounded=1;whiteSpace=wrap;html=1;" vertex="1" parent="WIyWlLk6GJQsqaUBKTNV-1">
          <mxGeometry x="1480" y="1815" width="80" height="40" as="geometry" />
        </mxCell>
        <mxCell id="whq1Z1M9XGtjdscwXclZ-63" value="Сумма_оплаты" style="rounded=1;whiteSpace=wrap;html=1;" vertex="1" parent="WIyWlLk6GJQsqaUBKTNV-1">
          <mxGeometry x="1500" y="1755" width="80" height="40" as="geometry" />
        </mxCell>
        <mxCell id="whq1Z1M9XGtjdscwXclZ-64" value="Время_оплаты" style="rounded=1;whiteSpace=wrap;html=1;" vertex="1" parent="WIyWlLk6GJQsqaUBKTNV-1">
          <mxGeometry x="1500" y="1660" width="80" height="40" as="geometry" />
        </mxCell>
        <mxCell id="whq1Z1M9XGtjdscwXclZ-65" value="Дата_оплаты" style="rounded=1;whiteSpace=wrap;html=1;" vertex="1" parent="WIyWlLk6GJQsqaUBKTNV-1">
          <mxGeometry x="1370" y="1815" width="80" height="40" as="geometry" />
        </mxCell>
        <mxCell id="whq1Z1M9XGtjdscwXclZ-66" style="edgeStyle=orthogonalEdgeStyle;rounded=0;orthogonalLoop=1;jettySize=auto;html=1;entryX=0.378;entryY=-0.034;entryDx=0;entryDy=0;entryPerimeter=0;endArrow=none;startFill=0;" edge="1" parent="WIyWlLk6GJQsqaUBKTNV-1" source="whq1Z1M9XGtjdscwXclZ-61" target="whq1Z1M9XGtjdscwXclZ-65">
          <mxGeometry relative="1" as="geometry" />
        </mxCell>
        <mxCell id="whq1Z1M9XGtjdscwXclZ-67" style="edgeStyle=orthogonalEdgeStyle;rounded=0;orthogonalLoop=1;jettySize=auto;html=1;entryX=0.125;entryY=0.125;entryDx=0;entryDy=0;entryPerimeter=0;endArrow=none;startFill=0;" edge="1" parent="WIyWlLk6GJQsqaUBKTNV-1" source="whq1Z1M9XGtjdscwXclZ-61" target="whq1Z1M9XGtjdscwXclZ-62">
          <mxGeometry relative="1" as="geometry">
            <Array as="points">
              <mxPoint x="1440" y="1800" />
              <mxPoint x="1490" y="1800" />
            </Array>
          </mxGeometry>
        </mxCell>
        <mxCell id="whq1Z1M9XGtjdscwXclZ-68" style="edgeStyle=orthogonalEdgeStyle;rounded=0;orthogonalLoop=1;jettySize=auto;html=1;entryX=0.931;entryY=-0.039;entryDx=0;entryDy=0;entryPerimeter=0;" edge="1" parent="WIyWlLk6GJQsqaUBKTNV-1" source="whq1Z1M9XGtjdscwXclZ-57" target="whq1Z1M9XGtjdscwXclZ-41">
          <mxGeometry relative="1" as="geometry" />
        </mxCell>
        <mxCell id="whq1Z1M9XGtjdscwXclZ-69" style="edgeStyle=orthogonalEdgeStyle;rounded=0;orthogonalLoop=1;jettySize=auto;html=1;entryX=0;entryY=0.25;entryDx=0;entryDy=0;startArrow=classic;startFill=1;" edge="1" parent="WIyWlLk6GJQsqaUBKTNV-1" source="whq1Z1M9XGtjdscwXclZ-70" target="whq1Z1M9XGtjdscwXclZ-0">
          <mxGeometry relative="1" as="geometry" />
        </mxCell>
        <mxCell id="whq1Z1M9XGtjdscwXclZ-70" value="Акции" style="rounded=0;whiteSpace=wrap;html=1;" vertex="1" parent="WIyWlLk6GJQsqaUBKTNV-1">
          <mxGeometry x="380" y="1330" width="120" height="60" as="geometry" />
        </mxCell>
        <mxCell id="whq1Z1M9XGtjdscwXclZ-71" style="edgeStyle=orthogonalEdgeStyle;rounded=0;orthogonalLoop=1;jettySize=auto;html=1;entryX=0;entryY=0.5;entryDx=0;entryDy=0;endArrow=none;startFill=0;" edge="1" parent="WIyWlLk6GJQsqaUBKTNV-1" source="whq1Z1M9XGtjdscwXclZ-72" target="whq1Z1M9XGtjdscwXclZ-70">
          <mxGeometry relative="1" as="geometry" />
        </mxCell>
        <mxCell id="whq1Z1M9XGtjdscwXclZ-72" value="Номер_акции" style="rounded=1;whiteSpace=wrap;html=1;" vertex="1" parent="WIyWlLk6GJQsqaUBKTNV-1">
          <mxGeometry x="190" y="1220" width="80" height="30" as="geometry" />
        </mxCell>
        <mxCell id="whq1Z1M9XGtjdscwXclZ-73" style="edgeStyle=orthogonalEdgeStyle;rounded=0;orthogonalLoop=1;jettySize=auto;html=1;entryX=0;entryY=0.5;entryDx=0;entryDy=0;endArrow=none;startFill=0;" edge="1" parent="WIyWlLk6GJQsqaUBKTNV-1" source="whq1Z1M9XGtjdscwXclZ-74" target="whq1Z1M9XGtjdscwXclZ-70">
          <mxGeometry relative="1" as="geometry" />
        </mxCell>
        <mxCell id="whq1Z1M9XGtjdscwXclZ-74" value="Название_акции" style="rounded=1;whiteSpace=wrap;html=1;" vertex="1" parent="WIyWlLk6GJQsqaUBKTNV-1">
          <mxGeometry x="190" y="1265" width="80" height="30" as="geometry" />
        </mxCell>
        <mxCell id="whq1Z1M9XGtjdscwXclZ-75" style="edgeStyle=orthogonalEdgeStyle;rounded=0;orthogonalLoop=1;jettySize=auto;html=1;entryX=0;entryY=0.5;entryDx=0;entryDy=0;endArrow=none;startFill=0;" edge="1" parent="WIyWlLk6GJQsqaUBKTNV-1" source="whq1Z1M9XGtjdscwXclZ-76" target="whq1Z1M9XGtjdscwXclZ-70">
          <mxGeometry relative="1" as="geometry" />
        </mxCell>
        <mxCell id="whq1Z1M9XGtjdscwXclZ-76" value="Номер_блюда" style="rounded=1;whiteSpace=wrap;html=1;" vertex="1" parent="WIyWlLk6GJQsqaUBKTNV-1">
          <mxGeometry x="190" y="1310" width="80" height="30" as="geometry" />
        </mxCell>
        <mxCell id="whq1Z1M9XGtjdscwXclZ-77" style="edgeStyle=orthogonalEdgeStyle;rounded=0;orthogonalLoop=1;jettySize=auto;html=1;endArrow=none;startFill=0;" edge="1" parent="WIyWlLk6GJQsqaUBKTNV-1" source="whq1Z1M9XGtjdscwXclZ-78">
          <mxGeometry relative="1" as="geometry">
            <mxPoint x="380" y="1360.0000000000002" as="targetPoint" />
          </mxGeometry>
        </mxCell>
        <mxCell id="whq1Z1M9XGtjdscwXclZ-78" value="Размер_скидки" style="rounded=1;whiteSpace=wrap;html=1;" vertex="1" parent="WIyWlLk6GJQsqaUBKTNV-1">
          <mxGeometry x="190" y="1360" width="80" height="30" as="geometry" />
        </mxCell>
        <mxCell id="whq1Z1M9XGtjdscwXclZ-79" style="edgeStyle=orthogonalEdgeStyle;rounded=0;orthogonalLoop=1;jettySize=auto;html=1;entryX=0;entryY=0.5;entryDx=0;entryDy=0;endArrow=none;startFill=0;" edge="1" parent="WIyWlLk6GJQsqaUBKTNV-1" source="whq1Z1M9XGtjdscwXclZ-80" target="whq1Z1M9XGtjdscwXclZ-70">
          <mxGeometry relative="1" as="geometry" />
        </mxCell>
        <mxCell id="whq1Z1M9XGtjdscwXclZ-80" value="Дата" style="rounded=1;whiteSpace=wrap;html=1;" vertex="1" parent="WIyWlLk6GJQsqaUBKTNV-1">
          <mxGeometry x="190" y="1410" width="80" height="30" as="geometry" />
        </mxCell>
        <mxCell id="whq1Z1M9XGtjdscwXclZ-81" style="edgeStyle=orthogonalEdgeStyle;rounded=0;orthogonalLoop=1;jettySize=auto;html=1;entryX=0;entryY=0.5;entryDx=0;entryDy=0;endArrow=none;startFill=0;" edge="1" parent="WIyWlLk6GJQsqaUBKTNV-1" source="whq1Z1M9XGtjdscwXclZ-82" target="whq1Z1M9XGtjdscwXclZ-70">
          <mxGeometry relative="1" as="geometry" />
        </mxCell>
        <mxCell id="whq1Z1M9XGtjdscwXclZ-82" value="Начало_акции" style="rounded=1;whiteSpace=wrap;html=1;" vertex="1" parent="WIyWlLk6GJQsqaUBKTNV-1">
          <mxGeometry x="190" y="1455" width="80" height="30" as="geometry" />
        </mxCell>
        <mxCell id="whq1Z1M9XGtjdscwXclZ-83" style="edgeStyle=orthogonalEdgeStyle;rounded=0;orthogonalLoop=1;jettySize=auto;html=1;entryX=0;entryY=0.5;entryDx=0;entryDy=0;endArrow=none;startFill=0;" edge="1" parent="WIyWlLk6GJQsqaUBKTNV-1" source="whq1Z1M9XGtjdscwXclZ-84" target="whq1Z1M9XGtjdscwXclZ-70">
          <mxGeometry relative="1" as="geometry" />
        </mxCell>
        <mxCell id="whq1Z1M9XGtjdscwXclZ-84" value="Конец_акции" style="rounded=1;whiteSpace=wrap;html=1;" vertex="1" parent="WIyWlLk6GJQsqaUBKTNV-1">
          <mxGeometry x="190" y="1500" width="80" height="30" as="geometry" />
        </mxCell>
        <mxCell id="whq1Z1M9XGtjdscwXclZ-85" value="Должности" style="rounded=0;whiteSpace=wrap;html=1;" vertex="1" parent="WIyWlLk6GJQsqaUBKTNV-1">
          <mxGeometry x="380" y="1665" width="120" height="60" as="geometry" />
        </mxCell>
        <mxCell id="whq1Z1M9XGtjdscwXclZ-86" style="edgeStyle=orthogonalEdgeStyle;rounded=0;orthogonalLoop=1;jettySize=auto;html=1;entryX=0;entryY=0.5;entryDx=0;entryDy=0;endArrow=none;startFill=0;" edge="1" parent="WIyWlLk6GJQsqaUBKTNV-1" source="whq1Z1M9XGtjdscwXclZ-87" target="whq1Z1M9XGtjdscwXclZ-85">
          <mxGeometry relative="1" as="geometry" />
        </mxCell>
        <mxCell id="whq1Z1M9XGtjdscwXclZ-87" value="Номер_должности" style="rounded=1;whiteSpace=wrap;html=1;" vertex="1" parent="WIyWlLk6GJQsqaUBKTNV-1">
          <mxGeometry x="190" y="1600" width="80" height="30" as="geometry" />
        </mxCell>
        <mxCell id="whq1Z1M9XGtjdscwXclZ-88" style="edgeStyle=orthogonalEdgeStyle;rounded=0;orthogonalLoop=1;jettySize=auto;html=1;entryX=0;entryY=0.5;entryDx=0;entryDy=0;endArrow=none;startFill=0;" edge="1" parent="WIyWlLk6GJQsqaUBKTNV-1" source="whq1Z1M9XGtjdscwXclZ-89" target="whq1Z1M9XGtjdscwXclZ-85">
          <mxGeometry relative="1" as="geometry" />
        </mxCell>
        <mxCell id="whq1Z1M9XGtjdscwXclZ-89" value="Название_ должности" style="rounded=1;whiteSpace=wrap;html=1;" vertex="1" parent="WIyWlLk6GJQsqaUBKTNV-1">
          <mxGeometry x="190" y="1650" width="80" height="30" as="geometry" />
        </mxCell>
        <mxCell id="whq1Z1M9XGtjdscwXclZ-90" style="edgeStyle=orthogonalEdgeStyle;rounded=0;orthogonalLoop=1;jettySize=auto;html=1;entryX=0;entryY=0.5;entryDx=0;entryDy=0;endArrow=none;startFill=0;" edge="1" parent="WIyWlLk6GJQsqaUBKTNV-1" source="whq1Z1M9XGtjdscwXclZ-91" target="whq1Z1M9XGtjdscwXclZ-85">
          <mxGeometry relative="1" as="geometry" />
        </mxCell>
        <mxCell id="whq1Z1M9XGtjdscwXclZ-91" value="Оклад" style="rounded=1;whiteSpace=wrap;html=1;" vertex="1" parent="WIyWlLk6GJQsqaUBKTNV-1">
          <mxGeometry x="190" y="1700" width="80" height="30" as="geometry" />
        </mxCell>
        <mxCell id="whq1Z1M9XGtjdscwXclZ-92" value="Сотрудники" style="rounded=0;whiteSpace=wrap;html=1;" vertex="1" parent="WIyWlLk6GJQsqaUBKTNV-1">
          <mxGeometry x="380" y="1825" width="120" height="60" as="geometry" />
        </mxCell>
        <mxCell id="whq1Z1M9XGtjdscwXclZ-93" style="edgeStyle=orthogonalEdgeStyle;rounded=0;orthogonalLoop=1;jettySize=auto;html=1;entryX=0;entryY=0.5;entryDx=0;entryDy=0;endArrow=none;startFill=0;" edge="1" parent="WIyWlLk6GJQsqaUBKTNV-1" source="whq1Z1M9XGtjdscwXclZ-94" target="whq1Z1M9XGtjdscwXclZ-92">
          <mxGeometry relative="1" as="geometry" />
        </mxCell>
        <mxCell id="whq1Z1M9XGtjdscwXclZ-94" value="Номер_сотрудника" style="rounded=1;whiteSpace=wrap;html=1;" vertex="1" parent="WIyWlLk6GJQsqaUBKTNV-1">
          <mxGeometry x="190" y="1760" width="80" height="30" as="geometry" />
        </mxCell>
        <mxCell id="whq1Z1M9XGtjdscwXclZ-95" style="edgeStyle=orthogonalEdgeStyle;rounded=0;orthogonalLoop=1;jettySize=auto;html=1;entryX=0;entryY=0.5;entryDx=0;entryDy=0;endArrow=none;startFill=0;" edge="1" parent="WIyWlLk6GJQsqaUBKTNV-1" source="whq1Z1M9XGtjdscwXclZ-96" target="whq1Z1M9XGtjdscwXclZ-92">
          <mxGeometry relative="1" as="geometry" />
        </mxCell>
        <mxCell id="whq1Z1M9XGtjdscwXclZ-96" value="Фамилия" style="rounded=1;whiteSpace=wrap;html=1;" vertex="1" parent="WIyWlLk6GJQsqaUBKTNV-1">
          <mxGeometry x="190" y="1810" width="80" height="30" as="geometry" />
        </mxCell>
        <mxCell id="whq1Z1M9XGtjdscwXclZ-97" style="edgeStyle=orthogonalEdgeStyle;rounded=0;orthogonalLoop=1;jettySize=auto;html=1;entryX=0;entryY=0.5;entryDx=0;entryDy=0;endArrow=none;startFill=0;" edge="1" parent="WIyWlLk6GJQsqaUBKTNV-1" source="whq1Z1M9XGtjdscwXclZ-98" target="whq1Z1M9XGtjdscwXclZ-92">
          <mxGeometry relative="1" as="geometry" />
        </mxCell>
        <mxCell id="whq1Z1M9XGtjdscwXclZ-98" value="Имя" style="rounded=1;whiteSpace=wrap;html=1;" vertex="1" parent="WIyWlLk6GJQsqaUBKTNV-1">
          <mxGeometry x="190" y="1860" width="80" height="30" as="geometry" />
        </mxCell>
        <mxCell id="whq1Z1M9XGtjdscwXclZ-99" style="edgeStyle=orthogonalEdgeStyle;rounded=0;orthogonalLoop=1;jettySize=auto;html=1;entryX=0;entryY=0.5;entryDx=0;entryDy=0;endArrow=none;startFill=0;" edge="1" parent="WIyWlLk6GJQsqaUBKTNV-1" source="whq1Z1M9XGtjdscwXclZ-100" target="whq1Z1M9XGtjdscwXclZ-92">
          <mxGeometry relative="1" as="geometry" />
        </mxCell>
        <mxCell id="whq1Z1M9XGtjdscwXclZ-100" value="Отчество" style="rounded=1;whiteSpace=wrap;html=1;" vertex="1" parent="WIyWlLk6GJQsqaUBKTNV-1">
          <mxGeometry x="190" y="1905" width="80" height="30" as="geometry" />
        </mxCell>
        <mxCell id="whq1Z1M9XGtjdscwXclZ-101" style="edgeStyle=orthogonalEdgeStyle;rounded=0;orthogonalLoop=1;jettySize=auto;html=1;entryX=0;entryY=0.5;entryDx=0;entryDy=0;endArrow=none;startFill=0;" edge="1" parent="WIyWlLk6GJQsqaUBKTNV-1" source="whq1Z1M9XGtjdscwXclZ-102" target="whq1Z1M9XGtjdscwXclZ-92">
          <mxGeometry relative="1" as="geometry" />
        </mxCell>
        <mxCell id="whq1Z1M9XGtjdscwXclZ-102" value="Номер_ должности" style="rounded=1;whiteSpace=wrap;html=1;" vertex="1" parent="WIyWlLk6GJQsqaUBKTNV-1">
          <mxGeometry x="190" y="1950" width="80" height="30" as="geometry" />
        </mxCell>
        <mxCell id="whq1Z1M9XGtjdscwXclZ-103" style="edgeStyle=orthogonalEdgeStyle;rounded=0;orthogonalLoop=1;jettySize=auto;html=1;entryX=1;entryY=0.5;entryDx=0;entryDy=0;" edge="1" parent="WIyWlLk6GJQsqaUBKTNV-1" source="whq1Z1M9XGtjdscwXclZ-104" target="whq1Z1M9XGtjdscwXclZ-85">
          <mxGeometry relative="1" as="geometry">
            <Array as="points">
              <mxPoint x="550" y="1695" />
            </Array>
          </mxGeometry>
        </mxCell>
        <mxCell id="whq1Z1M9XGtjdscwXclZ-104" value="Состоит" style="rhombus;whiteSpace=wrap;html=1;" vertex="1" parent="WIyWlLk6GJQsqaUBKTNV-1">
          <mxGeometry x="510" y="1750" width="80" height="80" as="geometry" />
        </mxCell>
        <mxCell id="whq1Z1M9XGtjdscwXclZ-105" style="edgeStyle=orthogonalEdgeStyle;rounded=0;orthogonalLoop=1;jettySize=auto;html=1;entryX=1.022;entryY=0.657;entryDx=0;entryDy=0;entryPerimeter=0;" edge="1" parent="WIyWlLk6GJQsqaUBKTNV-1" source="whq1Z1M9XGtjdscwXclZ-104" target="whq1Z1M9XGtjdscwXclZ-92">
          <mxGeometry relative="1" as="geometry">
            <Array as="points">
              <mxPoint x="550" y="1850" />
              <mxPoint x="520" y="1850" />
              <mxPoint x="520" y="1864" />
            </Array>
          </mxGeometry>
        </mxCell>
        <mxCell id="whq1Z1M9XGtjdscwXclZ-106" value="Смены" style="rounded=0;whiteSpace=wrap;html=1;" vertex="1" parent="WIyWlLk6GJQsqaUBKTNV-1">
          <mxGeometry x="390" y="2120" width="120" height="60" as="geometry" />
        </mxCell>
        <mxCell id="whq1Z1M9XGtjdscwXclZ-107" style="edgeStyle=orthogonalEdgeStyle;rounded=0;orthogonalLoop=1;jettySize=auto;html=1;entryX=0;entryY=0.5;entryDx=0;entryDy=0;endArrow=none;startFill=0;" edge="1" parent="WIyWlLk6GJQsqaUBKTNV-1" source="whq1Z1M9XGtjdscwXclZ-108" target="whq1Z1M9XGtjdscwXclZ-106">
          <mxGeometry relative="1" as="geometry" />
        </mxCell>
        <mxCell id="whq1Z1M9XGtjdscwXclZ-108" value="Номер_смены" style="rounded=1;whiteSpace=wrap;html=1;" vertex="1" parent="WIyWlLk6GJQsqaUBKTNV-1">
          <mxGeometry x="200" y="2010" width="80" height="30" as="geometry" />
        </mxCell>
        <mxCell id="whq1Z1M9XGtjdscwXclZ-109" style="edgeStyle=orthogonalEdgeStyle;rounded=0;orthogonalLoop=1;jettySize=auto;html=1;entryX=0;entryY=0.5;entryDx=0;entryDy=0;endArrow=none;startFill=0;" edge="1" parent="WIyWlLk6GJQsqaUBKTNV-1" source="whq1Z1M9XGtjdscwXclZ-110" target="whq1Z1M9XGtjdscwXclZ-106">
          <mxGeometry relative="1" as="geometry" />
        </mxCell>
        <mxCell id="whq1Z1M9XGtjdscwXclZ-110" value="Номер_сотрудника" style="rounded=1;whiteSpace=wrap;html=1;" vertex="1" parent="WIyWlLk6GJQsqaUBKTNV-1">
          <mxGeometry x="160" y="2055" width="120" height="30" as="geometry" />
        </mxCell>
        <mxCell id="whq1Z1M9XGtjdscwXclZ-111" style="edgeStyle=orthogonalEdgeStyle;rounded=0;orthogonalLoop=1;jettySize=auto;html=1;entryX=0;entryY=0.5;entryDx=0;entryDy=0;endArrow=none;startFill=0;" edge="1" parent="WIyWlLk6GJQsqaUBKTNV-1" source="whq1Z1M9XGtjdscwXclZ-112" target="whq1Z1M9XGtjdscwXclZ-106">
          <mxGeometry relative="1" as="geometry" />
        </mxCell>
        <mxCell id="whq1Z1M9XGtjdscwXclZ-112" value="Дата" style="rounded=1;whiteSpace=wrap;html=1;" vertex="1" parent="WIyWlLk6GJQsqaUBKTNV-1">
          <mxGeometry x="200" y="2100" width="80" height="30" as="geometry" />
        </mxCell>
        <mxCell id="whq1Z1M9XGtjdscwXclZ-113" style="edgeStyle=orthogonalEdgeStyle;rounded=0;orthogonalLoop=1;jettySize=auto;html=1;endArrow=none;startFill=0;" edge="1" parent="WIyWlLk6GJQsqaUBKTNV-1" source="whq1Z1M9XGtjdscwXclZ-114">
          <mxGeometry relative="1" as="geometry">
            <mxPoint x="390" y="2150" as="targetPoint" />
          </mxGeometry>
        </mxCell>
        <mxCell id="whq1Z1M9XGtjdscwXclZ-114" value="Время_начала" style="rounded=1;whiteSpace=wrap;html=1;" vertex="1" parent="WIyWlLk6GJQsqaUBKTNV-1">
          <mxGeometry x="200" y="2150" width="80" height="30" as="geometry" />
        </mxCell>
        <mxCell id="whq1Z1M9XGtjdscwXclZ-115" style="edgeStyle=orthogonalEdgeStyle;rounded=0;orthogonalLoop=1;jettySize=auto;html=1;entryX=0;entryY=0.5;entryDx=0;entryDy=0;endArrow=none;startFill=0;" edge="1" parent="WIyWlLk6GJQsqaUBKTNV-1" source="whq1Z1M9XGtjdscwXclZ-116" target="whq1Z1M9XGtjdscwXclZ-106">
          <mxGeometry relative="1" as="geometry" />
        </mxCell>
        <mxCell id="whq1Z1M9XGtjdscwXclZ-116" value="Время_окончания" style="rounded=1;whiteSpace=wrap;html=1;" vertex="1" parent="WIyWlLk6GJQsqaUBKTNV-1">
          <mxGeometry x="180" y="2200" width="100" height="30" as="geometry" />
        </mxCell>
        <mxCell id="whq1Z1M9XGtjdscwXclZ-117" style="edgeStyle=orthogonalEdgeStyle;rounded=0;orthogonalLoop=1;jettySize=auto;html=1;entryX=0;entryY=0.5;entryDx=0;entryDy=0;endArrow=none;startFill=0;" edge="1" parent="WIyWlLk6GJQsqaUBKTNV-1" source="whq1Z1M9XGtjdscwXclZ-118" target="whq1Z1M9XGtjdscwXclZ-106">
          <mxGeometry relative="1" as="geometry" />
        </mxCell>
        <mxCell id="whq1Z1M9XGtjdscwXclZ-118" value="Номер_дня_недели" style="rounded=1;whiteSpace=wrap;html=1;" vertex="1" parent="WIyWlLk6GJQsqaUBKTNV-1">
          <mxGeometry x="180" y="2245" width="100" height="30" as="geometry" />
        </mxCell>
        <mxCell id="whq1Z1M9XGtjdscwXclZ-119" style="edgeStyle=orthogonalEdgeStyle;rounded=0;orthogonalLoop=1;jettySize=auto;html=1;entryX=1;entryY=0.5;entryDx=0;entryDy=0;" edge="1" parent="WIyWlLk6GJQsqaUBKTNV-1" source="whq1Z1M9XGtjdscwXclZ-120" target="whq1Z1M9XGtjdscwXclZ-92">
          <mxGeometry relative="1" as="geometry">
            <Array as="points">
              <mxPoint x="570" y="1855" />
            </Array>
          </mxGeometry>
        </mxCell>
        <mxCell id="whq1Z1M9XGtjdscwXclZ-120" value="Работает" style="rhombus;whiteSpace=wrap;html=1;" vertex="1" parent="WIyWlLk6GJQsqaUBKTNV-1">
          <mxGeometry x="530" y="1975" width="80" height="80" as="geometry" />
        </mxCell>
        <mxCell id="whq1Z1M9XGtjdscwXclZ-121" style="edgeStyle=orthogonalEdgeStyle;rounded=0;orthogonalLoop=1;jettySize=auto;html=1;entryX=1.028;entryY=0.678;entryDx=0;entryDy=0;entryPerimeter=0;" edge="1" parent="WIyWlLk6GJQsqaUBKTNV-1" source="whq1Z1M9XGtjdscwXclZ-120" target="whq1Z1M9XGtjdscwXclZ-106">
          <mxGeometry relative="1" as="geometry">
            <Array as="points">
              <mxPoint x="570" y="2161" />
            </Array>
          </mxGeometry>
        </mxCell>
        <mxCell id="whq1Z1M9XGtjdscwXclZ-122" value="График_работы_ресторана" style="rounded=0;whiteSpace=wrap;html=1;" vertex="1" parent="WIyWlLk6GJQsqaUBKTNV-1">
          <mxGeometry x="380" y="2365" width="170" height="75" as="geometry" />
        </mxCell>
        <mxCell id="whq1Z1M9XGtjdscwXclZ-123" style="edgeStyle=orthogonalEdgeStyle;rounded=0;orthogonalLoop=1;jettySize=auto;html=1;entryX=0;entryY=0.5;entryDx=0;entryDy=0;endArrow=none;startFill=0;" edge="1" parent="WIyWlLk6GJQsqaUBKTNV-1" source="whq1Z1M9XGtjdscwXclZ-124" target="whq1Z1M9XGtjdscwXclZ-122">
          <mxGeometry relative="1" as="geometry" />
        </mxCell>
        <mxCell id="whq1Z1M9XGtjdscwXclZ-124" value="Номер_дня_недели" style="rounded=1;whiteSpace=wrap;html=1;" vertex="1" parent="WIyWlLk6GJQsqaUBKTNV-1">
          <mxGeometry x="160" y="2300" width="110" height="30" as="geometry" />
        </mxCell>
        <mxCell id="whq1Z1M9XGtjdscwXclZ-125" style="edgeStyle=orthogonalEdgeStyle;rounded=0;orthogonalLoop=1;jettySize=auto;html=1;entryX=0;entryY=0.5;entryDx=0;entryDy=0;endArrow=none;startFill=0;" edge="1" parent="WIyWlLk6GJQsqaUBKTNV-1" source="whq1Z1M9XGtjdscwXclZ-126" target="whq1Z1M9XGtjdscwXclZ-122">
          <mxGeometry relative="1" as="geometry" />
        </mxCell>
        <mxCell id="whq1Z1M9XGtjdscwXclZ-126" value="Дни_недели" style="rounded=1;whiteSpace=wrap;html=1;" vertex="1" parent="WIyWlLk6GJQsqaUBKTNV-1">
          <mxGeometry x="190" y="2350" width="80" height="30" as="geometry" />
        </mxCell>
        <mxCell id="whq1Z1M9XGtjdscwXclZ-127" style="edgeStyle=orthogonalEdgeStyle;rounded=0;orthogonalLoop=1;jettySize=auto;html=1;entryX=0;entryY=0.5;entryDx=0;entryDy=0;endArrow=none;startFill=0;" edge="1" parent="WIyWlLk6GJQsqaUBKTNV-1" source="whq1Z1M9XGtjdscwXclZ-128" target="whq1Z1M9XGtjdscwXclZ-122">
          <mxGeometry relative="1" as="geometry" />
        </mxCell>
        <mxCell id="whq1Z1M9XGtjdscwXclZ-128" value="Время_открытия" style="rounded=1;whiteSpace=wrap;html=1;" vertex="1" parent="WIyWlLk6GJQsqaUBKTNV-1">
          <mxGeometry x="180" y="2400" width="90" height="30" as="geometry" />
        </mxCell>
        <mxCell id="whq1Z1M9XGtjdscwXclZ-129" style="edgeStyle=orthogonalEdgeStyle;rounded=0;orthogonalLoop=1;jettySize=auto;html=1;endArrow=none;startFill=0;" edge="1" parent="WIyWlLk6GJQsqaUBKTNV-1" source="whq1Z1M9XGtjdscwXclZ-130" target="whq1Z1M9XGtjdscwXclZ-122">
          <mxGeometry relative="1" as="geometry" />
        </mxCell>
        <mxCell id="whq1Z1M9XGtjdscwXclZ-130" value="Время_закрытия" style="rounded=1;whiteSpace=wrap;html=1;" vertex="1" parent="WIyWlLk6GJQsqaUBKTNV-1">
          <mxGeometry x="185" y="2440" width="90" height="30" as="geometry" />
        </mxCell>
        <mxCell id="whq1Z1M9XGtjdscwXclZ-131" style="edgeStyle=orthogonalEdgeStyle;rounded=0;orthogonalLoop=1;jettySize=auto;html=1;entryX=1;entryY=0.5;entryDx=0;entryDy=0;" edge="1" parent="WIyWlLk6GJQsqaUBKTNV-1" source="whq1Z1M9XGtjdscwXclZ-133" target="whq1Z1M9XGtjdscwXclZ-106">
          <mxGeometry relative="1" as="geometry" />
        </mxCell>
        <mxCell id="whq1Z1M9XGtjdscwXclZ-132" style="edgeStyle=orthogonalEdgeStyle;rounded=0;orthogonalLoop=1;jettySize=auto;html=1;entryX=1;entryY=0.5;entryDx=0;entryDy=0;" edge="1" parent="WIyWlLk6GJQsqaUBKTNV-1" source="whq1Z1M9XGtjdscwXclZ-133" target="whq1Z1M9XGtjdscwXclZ-122">
          <mxGeometry relative="1" as="geometry" />
        </mxCell>
        <mxCell id="whq1Z1M9XGtjdscwXclZ-133" value="Регламентирует" style="rhombus;whiteSpace=wrap;html=1;" vertex="1" parent="WIyWlLk6GJQsqaUBKTNV-1">
          <mxGeometry x="550" y="2240" width="100" height="85" as="geometry" />
        </mxCell>
        <mxCell id="whq1Z1M9XGtjdscwXclZ-134" style="edgeStyle=orthogonalEdgeStyle;rounded=0;orthogonalLoop=1;jettySize=auto;html=1;entryX=0;entryY=0.5;entryDx=0;entryDy=0;endArrow=none;startFill=0;" edge="1" parent="WIyWlLk6GJQsqaUBKTNV-1" source="whq1Z1M9XGtjdscwXclZ-136" target="whq1Z1M9XGtjdscwXclZ-137">
          <mxGeometry relative="1" as="geometry" />
        </mxCell>
        <mxCell id="whq1Z1M9XGtjdscwXclZ-135" style="edgeStyle=orthogonalEdgeStyle;rounded=0;orthogonalLoop=1;jettySize=auto;html=1;entryX=1;entryY=0.25;entryDx=0;entryDy=0;" edge="1" parent="WIyWlLk6GJQsqaUBKTNV-1" source="whq1Z1M9XGtjdscwXclZ-136" target="whq1Z1M9XGtjdscwXclZ-41">
          <mxGeometry relative="1" as="geometry">
            <Array as="points">
              <mxPoint x="1160" y="1410" />
              <mxPoint x="1160" y="1800" />
              <mxPoint x="1040" y="1800" />
            </Array>
          </mxGeometry>
        </mxCell>
        <mxCell id="whq1Z1M9XGtjdscwXclZ-136" value="Статусы" style="rounded=0;whiteSpace=wrap;html=1;" vertex="1" parent="WIyWlLk6GJQsqaUBKTNV-1">
          <mxGeometry x="1470" y="1380" width="120" height="60" as="geometry" />
        </mxCell>
        <mxCell id="whq1Z1M9XGtjdscwXclZ-137" value="Номер_статуса" style="rounded=1;whiteSpace=wrap;html=1;" vertex="1" parent="WIyWlLk6GJQsqaUBKTNV-1">
          <mxGeometry x="1630" y="1300" width="90" height="55" as="geometry" />
        </mxCell>
        <mxCell id="whq1Z1M9XGtjdscwXclZ-138" value="Статус" style="rounded=1;whiteSpace=wrap;html=1;" vertex="1" parent="WIyWlLk6GJQsqaUBKTNV-1">
          <mxGeometry x="1650" y="1380" width="80" height="40" as="geometry" />
        </mxCell>
        <mxCell id="whq1Z1M9XGtjdscwXclZ-139" style="edgeStyle=orthogonalEdgeStyle;rounded=0;orthogonalLoop=1;jettySize=auto;html=1;entryX=0.002;entryY=0.635;entryDx=0;entryDy=0;entryPerimeter=0;endArrow=none;startFill=0;" edge="1" parent="WIyWlLk6GJQsqaUBKTNV-1" source="whq1Z1M9XGtjdscwXclZ-136" target="whq1Z1M9XGtjdscwXclZ-138">
          <mxGeometry relative="1" as="geometry" />
        </mxCell>
        <mxCell id="whq1Z1M9XGtjdscwXclZ-140" style="edgeStyle=orthogonalEdgeStyle;rounded=0;orthogonalLoop=1;jettySize=auto;html=1;entryX=0;entryY=0.5;entryDx=0;entryDy=0;endArrow=none;startFill=0;" edge="1" parent="WIyWlLk6GJQsqaUBKTNV-1" source="whq1Z1M9XGtjdscwXclZ-142" target="whq1Z1M9XGtjdscwXclZ-143">
          <mxGeometry relative="1" as="geometry" />
        </mxCell>
        <mxCell id="whq1Z1M9XGtjdscwXclZ-141" style="edgeStyle=orthogonalEdgeStyle;rounded=0;orthogonalLoop=1;jettySize=auto;html=1;entryX=0.5;entryY=0;entryDx=0;entryDy=0;" edge="1" parent="WIyWlLk6GJQsqaUBKTNV-1" source="whq1Z1M9XGtjdscwXclZ-142" target="whq1Z1M9XGtjdscwXclZ-149">
          <mxGeometry relative="1" as="geometry" />
        </mxCell>
        <mxCell id="whq1Z1M9XGtjdscwXclZ-142" value="Столы" style="rounded=0;whiteSpace=wrap;html=1;" vertex="1" parent="WIyWlLk6GJQsqaUBKTNV-1">
          <mxGeometry x="1460" y="1230" width="120" height="60" as="geometry" />
        </mxCell>
        <mxCell id="whq1Z1M9XGtjdscwXclZ-143" value="Номер_стола" style="rounded=1;whiteSpace=wrap;html=1;" vertex="1" parent="WIyWlLk6GJQsqaUBKTNV-1">
          <mxGeometry x="1620" y="1150" width="90" height="55" as="geometry" />
        </mxCell>
        <mxCell id="whq1Z1M9XGtjdscwXclZ-144" value="Количество_мест" style="rounded=1;whiteSpace=wrap;html=1;" vertex="1" parent="WIyWlLk6GJQsqaUBKTNV-1">
          <mxGeometry x="1640" y="1230" width="100" height="40" as="geometry" />
        </mxCell>
        <mxCell id="whq1Z1M9XGtjdscwXclZ-145" style="edgeStyle=orthogonalEdgeStyle;rounded=0;orthogonalLoop=1;jettySize=auto;html=1;entryX=0.002;entryY=0.635;entryDx=0;entryDy=0;entryPerimeter=0;endArrow=none;startFill=0;" edge="1" parent="WIyWlLk6GJQsqaUBKTNV-1" source="whq1Z1M9XGtjdscwXclZ-142" target="whq1Z1M9XGtjdscwXclZ-144">
          <mxGeometry relative="1" as="geometry" />
        </mxCell>
        <mxCell id="whq1Z1M9XGtjdscwXclZ-146" value="Статус" style="rounded=1;whiteSpace=wrap;html=1;" vertex="1" parent="WIyWlLk6GJQsqaUBKTNV-1">
          <mxGeometry x="1620" y="1080" width="90" height="55" as="geometry" />
        </mxCell>
        <mxCell id="whq1Z1M9XGtjdscwXclZ-147" style="edgeStyle=orthogonalEdgeStyle;rounded=0;orthogonalLoop=1;jettySize=auto;html=1;entryX=0.028;entryY=0.38;entryDx=0;entryDy=0;entryPerimeter=0;" edge="1" parent="WIyWlLk6GJQsqaUBKTNV-1" source="whq1Z1M9XGtjdscwXclZ-142" target="whq1Z1M9XGtjdscwXclZ-146">
          <mxGeometry relative="1" as="geometry">
            <Array as="points">
              <mxPoint x="1590" y="1260" />
              <mxPoint x="1590" y="1101" />
            </Array>
          </mxGeometry>
        </mxCell>
        <mxCell id="whq1Z1M9XGtjdscwXclZ-148" style="edgeStyle=orthogonalEdgeStyle;rounded=0;orthogonalLoop=1;jettySize=auto;html=1;entryX=0.75;entryY=0;entryDx=0;entryDy=0;" edge="1" parent="WIyWlLk6GJQsqaUBKTNV-1" source="whq1Z1M9XGtjdscwXclZ-149" target="whq1Z1M9XGtjdscwXclZ-41">
          <mxGeometry relative="1" as="geometry">
            <Array as="points">
              <mxPoint x="1070" y="1560" />
              <mxPoint x="1070" y="1800" />
            </Array>
          </mxGeometry>
        </mxCell>
        <mxCell id="whq1Z1M9XGtjdscwXclZ-149" value="Привязан" style="rhombus;whiteSpace=wrap;html=1;" vertex="1" parent="WIyWlLk6GJQsqaUBKTNV-1">
          <mxGeometry x="1360" y="1520" width="80" height="80" as="geometry" />
        </mxCell>
        <mxCell id="whq1Z1M9XGtjdscwXclZ-150" style="edgeStyle=orthogonalEdgeStyle;rounded=0;orthogonalLoop=1;jettySize=auto;html=1;entryX=0;entryY=0.5;entryDx=0;entryDy=0;endArrow=none;startFill=0;" edge="1" parent="WIyWlLk6GJQsqaUBKTNV-1" source="whq1Z1M9XGtjdscwXclZ-152" target="whq1Z1M9XGtjdscwXclZ-153">
          <mxGeometry relative="1" as="geometry" />
        </mxCell>
        <mxCell id="whq1Z1M9XGtjdscwXclZ-151" style="edgeStyle=orthogonalEdgeStyle;rounded=0;orthogonalLoop=1;jettySize=auto;html=1;entryX=0.5;entryY=0;entryDx=0;entryDy=0;" edge="1" parent="WIyWlLk6GJQsqaUBKTNV-1" source="whq1Z1M9XGtjdscwXclZ-152" target="whq1Z1M9XGtjdscwXclZ-142">
          <mxGeometry relative="1" as="geometry" />
        </mxCell>
        <mxCell id="whq1Z1M9XGtjdscwXclZ-152" value="Детали_бронирования" style="rounded=0;whiteSpace=wrap;html=1;" vertex="1" parent="WIyWlLk6GJQsqaUBKTNV-1">
          <mxGeometry x="1620" y="840" width="120" height="60" as="geometry" />
        </mxCell>
        <mxCell id="whq1Z1M9XGtjdscwXclZ-153" value="Номер_стола" style="rounded=1;whiteSpace=wrap;html=1;" vertex="1" parent="WIyWlLk6GJQsqaUBKTNV-1">
          <mxGeometry x="1780" y="760" width="90" height="55" as="geometry" />
        </mxCell>
        <mxCell id="whq1Z1M9XGtjdscwXclZ-154" value="Номер_бронирования" style="rounded=1;whiteSpace=wrap;html=1;" vertex="1" parent="WIyWlLk6GJQsqaUBKTNV-1">
          <mxGeometry x="1780" y="690" width="90" height="55" as="geometry" />
        </mxCell>
        <mxCell id="whq1Z1M9XGtjdscwXclZ-155" style="edgeStyle=orthogonalEdgeStyle;rounded=0;orthogonalLoop=1;jettySize=auto;html=1;entryX=0.028;entryY=0.38;entryDx=0;entryDy=0;entryPerimeter=0;" edge="1" parent="WIyWlLk6GJQsqaUBKTNV-1" source="whq1Z1M9XGtjdscwXclZ-152" target="whq1Z1M9XGtjdscwXclZ-154">
          <mxGeometry relative="1" as="geometry">
            <Array as="points">
              <mxPoint x="1750" y="870" />
              <mxPoint x="1750" y="711" />
            </Array>
          </mxGeometry>
        </mxCell>
        <mxCell id="whq1Z1M9XGtjdscwXclZ-156" style="edgeStyle=orthogonalEdgeStyle;rounded=0;orthogonalLoop=1;jettySize=auto;html=1;endArrow=none;startFill=0;" edge="1" parent="WIyWlLk6GJQsqaUBKTNV-1" source="whq1Z1M9XGtjdscwXclZ-159" target="whq1Z1M9XGtjdscwXclZ-163">
          <mxGeometry relative="1" as="geometry" />
        </mxCell>
        <mxCell id="whq1Z1M9XGtjdscwXclZ-157" style="edgeStyle=orthogonalEdgeStyle;rounded=0;orthogonalLoop=1;jettySize=auto;html=1;entryX=0;entryY=1;entryDx=0;entryDy=0;" edge="1" parent="WIyWlLk6GJQsqaUBKTNV-1" source="whq1Z1M9XGtjdscwXclZ-159" target="whq1Z1M9XGtjdscwXclZ-152">
          <mxGeometry relative="1" as="geometry">
            <Array as="points">
              <mxPoint x="1480" y="920" />
              <mxPoint x="1620" y="920" />
            </Array>
          </mxGeometry>
        </mxCell>
        <mxCell id="whq1Z1M9XGtjdscwXclZ-158" style="edgeStyle=orthogonalEdgeStyle;rounded=0;orthogonalLoop=1;jettySize=auto;html=1;" edge="1" parent="WIyWlLk6GJQsqaUBKTNV-1" source="whq1Z1M9XGtjdscwXclZ-159" target="whq1Z1M9XGtjdscwXclZ-146">
          <mxGeometry relative="1" as="geometry">
            <Array as="points">
              <mxPoint x="1460" y="1108" />
            </Array>
          </mxGeometry>
        </mxCell>
        <mxCell id="whq1Z1M9XGtjdscwXclZ-159" value="Бронирование" style="rounded=0;whiteSpace=wrap;html=1;" vertex="1" parent="WIyWlLk6GJQsqaUBKTNV-1">
          <mxGeometry x="1420" y="780" width="120" height="60" as="geometry" />
        </mxCell>
        <mxCell id="whq1Z1M9XGtjdscwXclZ-160" value="Номер_бронирования" style="rounded=1;whiteSpace=wrap;html=1;" vertex="1" parent="WIyWlLk6GJQsqaUBKTNV-1">
          <mxGeometry x="1290" y="586" width="120" height="60" as="geometry" />
        </mxCell>
        <mxCell id="whq1Z1M9XGtjdscwXclZ-161" style="edgeStyle=orthogonalEdgeStyle;rounded=0;orthogonalLoop=1;jettySize=auto;html=1;endArrow=none;startFill=0;" edge="1" parent="WIyWlLk6GJQsqaUBKTNV-1" source="whq1Z1M9XGtjdscwXclZ-162" target="whq1Z1M9XGtjdscwXclZ-159">
          <mxGeometry relative="1" as="geometry" />
        </mxCell>
        <mxCell id="whq1Z1M9XGtjdscwXclZ-162" value="Номер_клиента" style="rounded=1;whiteSpace=wrap;html=1;" vertex="1" parent="WIyWlLk6GJQsqaUBKTNV-1">
          <mxGeometry x="1420" y="586" width="120" height="60" as="geometry" />
        </mxCell>
        <mxCell id="whq1Z1M9XGtjdscwXclZ-163" value="&lt;div&gt;Дата&lt;/div&gt;" style="rounded=1;whiteSpace=wrap;html=1;" vertex="1" parent="WIyWlLk6GJQsqaUBKTNV-1">
          <mxGeometry x="1550" y="586" width="120" height="60" as="geometry" />
        </mxCell>
        <mxCell id="whq1Z1M9XGtjdscwXclZ-164" value="Начало_бронирования" style="rounded=1;whiteSpace=wrap;html=1;" vertex="1" parent="WIyWlLk6GJQsqaUBKTNV-1">
          <mxGeometry x="1300" y="670" width="120" height="60" as="geometry" />
        </mxCell>
        <mxCell id="whq1Z1M9XGtjdscwXclZ-165" value="Статус" style="rounded=1;whiteSpace=wrap;html=1;" vertex="1" parent="WIyWlLk6GJQsqaUBKTNV-1">
          <mxGeometry x="1430" y="670" width="120" height="60" as="geometry" />
        </mxCell>
        <mxCell id="whq1Z1M9XGtjdscwXclZ-166" value="Конец_бронирования" style="rounded=1;whiteSpace=wrap;html=1;" vertex="1" parent="WIyWlLk6GJQsqaUBKTNV-1">
          <mxGeometry x="1560" y="660" width="120" height="60" as="geometry" />
        </mxCell>
        <mxCell id="whq1Z1M9XGtjdscwXclZ-167" style="edgeStyle=orthogonalEdgeStyle;rounded=0;orthogonalLoop=1;jettySize=auto;html=1;entryX=0.544;entryY=1.053;entryDx=0;entryDy=0;entryPerimeter=0;endArrow=none;startFill=0;" edge="1" parent="WIyWlLk6GJQsqaUBKTNV-1" source="whq1Z1M9XGtjdscwXclZ-159" target="whq1Z1M9XGtjdscwXclZ-164">
          <mxGeometry relative="1" as="geometry" />
        </mxCell>
        <mxCell id="whq1Z1M9XGtjdscwXclZ-168" style="edgeStyle=orthogonalEdgeStyle;rounded=0;orthogonalLoop=1;jettySize=auto;html=1;entryX=0.435;entryY=1.019;entryDx=0;entryDy=0;entryPerimeter=0;endArrow=none;startFill=0;" edge="1" parent="WIyWlLk6GJQsqaUBKTNV-1" source="whq1Z1M9XGtjdscwXclZ-159" target="whq1Z1M9XGtjdscwXclZ-165">
          <mxGeometry relative="1" as="geometry" />
        </mxCell>
        <mxCell id="whq1Z1M9XGtjdscwXclZ-169" style="edgeStyle=orthogonalEdgeStyle;rounded=0;orthogonalLoop=1;jettySize=auto;html=1;entryX=0.444;entryY=1.003;entryDx=0;entryDy=0;entryPerimeter=0;endArrow=none;startFill=0;" edge="1" parent="WIyWlLk6GJQsqaUBKTNV-1" source="whq1Z1M9XGtjdscwXclZ-159" target="whq1Z1M9XGtjdscwXclZ-166">
          <mxGeometry relative="1" as="geometry">
            <Array as="points">
              <mxPoint x="1480" y="770" />
              <mxPoint x="1613" y="770" />
            </Array>
          </mxGeometry>
        </mxCell>
        <mxCell id="whq1Z1M9XGtjdscwXclZ-170" style="edgeStyle=orthogonalEdgeStyle;rounded=0;orthogonalLoop=1;jettySize=auto;html=1;entryX=0.481;entryY=0.946;entryDx=0;entryDy=0;entryPerimeter=0;endArrow=none;startFill=0;" edge="1" parent="WIyWlLk6GJQsqaUBKTNV-1" source="whq1Z1M9XGtjdscwXclZ-159" target="whq1Z1M9XGtjdscwXclZ-160">
          <mxGeometry relative="1" as="geometry">
            <Array as="points">
              <mxPoint x="1430" y="660" />
              <mxPoint x="1348" y="660" />
            </Array>
          </mxGeometry>
        </mxCell>
        <mxCell id="whq1Z1M9XGtjdscwXclZ-171" style="edgeStyle=orthogonalEdgeStyle;rounded=0;orthogonalLoop=1;jettySize=auto;html=1;entryX=0.5;entryY=1;entryDx=0;entryDy=0;endArrow=none;startFill=0;" edge="1" parent="WIyWlLk6GJQsqaUBKTNV-1" source="whq1Z1M9XGtjdscwXclZ-173" target="whq1Z1M9XGtjdscwXclZ-174">
          <mxGeometry relative="1" as="geometry" />
        </mxCell>
        <mxCell id="whq1Z1M9XGtjdscwXclZ-172" style="edgeStyle=orthogonalEdgeStyle;rounded=0;orthogonalLoop=1;jettySize=auto;html=1;entryX=0.5;entryY=1;entryDx=0;entryDy=0;endArrow=none;startFill=0;" edge="1" parent="WIyWlLk6GJQsqaUBKTNV-1" source="whq1Z1M9XGtjdscwXclZ-173" target="whq1Z1M9XGtjdscwXclZ-175">
          <mxGeometry relative="1" as="geometry" />
        </mxCell>
        <mxCell id="whq1Z1M9XGtjdscwXclZ-173" value="Клиенты" style="rounded=0;whiteSpace=wrap;html=1;" vertex="1" parent="WIyWlLk6GJQsqaUBKTNV-1">
          <mxGeometry x="930" y="640" width="120" height="60" as="geometry" />
        </mxCell>
        <mxCell id="whq1Z1M9XGtjdscwXclZ-174" value="Номер_клиента" style="rounded=1;whiteSpace=wrap;html=1;" vertex="1" parent="WIyWlLk6GJQsqaUBKTNV-1">
          <mxGeometry x="765" y="540" width="95" height="30" as="geometry" />
        </mxCell>
        <mxCell id="whq1Z1M9XGtjdscwXclZ-175" value="Фамилия" style="rounded=1;whiteSpace=wrap;html=1;" vertex="1" parent="WIyWlLk6GJQsqaUBKTNV-1">
          <mxGeometry x="890" y="540" width="80" height="30" as="geometry" />
        </mxCell>
        <mxCell id="whq1Z1M9XGtjdscwXclZ-176" value="Имя" style="rounded=1;whiteSpace=wrap;html=1;" vertex="1" parent="WIyWlLk6GJQsqaUBKTNV-1">
          <mxGeometry x="990" y="540" width="80" height="30" as="geometry" />
        </mxCell>
        <mxCell id="whq1Z1M9XGtjdscwXclZ-177" value="Отчество" style="rounded=1;whiteSpace=wrap;html=1;" vertex="1" parent="WIyWlLk6GJQsqaUBKTNV-1">
          <mxGeometry x="1090" y="540" width="80" height="30" as="geometry" />
        </mxCell>
        <mxCell id="whq1Z1M9XGtjdscwXclZ-178" value="&lt;font style=&quot;font-size: 10px;&quot;&gt;Контактные_данные&lt;/font&gt;" style="rounded=1;whiteSpace=wrap;html=1;" vertex="1" parent="WIyWlLk6GJQsqaUBKTNV-1">
          <mxGeometry x="1180" y="540" width="80" height="30" as="geometry" />
        </mxCell>
        <mxCell id="whq1Z1M9XGtjdscwXclZ-179" style="edgeStyle=orthogonalEdgeStyle;rounded=0;orthogonalLoop=1;jettySize=auto;html=1;entryX=0.435;entryY=1.029;entryDx=0;entryDy=0;entryPerimeter=0;endArrow=none;startFill=0;" edge="1" parent="WIyWlLk6GJQsqaUBKTNV-1" source="whq1Z1M9XGtjdscwXclZ-173" target="whq1Z1M9XGtjdscwXclZ-176">
          <mxGeometry relative="1" as="geometry" />
        </mxCell>
        <mxCell id="whq1Z1M9XGtjdscwXclZ-180" style="edgeStyle=orthogonalEdgeStyle;rounded=0;orthogonalLoop=1;jettySize=auto;html=1;entryX=0.33;entryY=1.084;entryDx=0;entryDy=0;entryPerimeter=0;endArrow=none;startFill=0;" edge="1" parent="WIyWlLk6GJQsqaUBKTNV-1" source="whq1Z1M9XGtjdscwXclZ-173" target="whq1Z1M9XGtjdscwXclZ-177">
          <mxGeometry relative="1" as="geometry" />
        </mxCell>
        <mxCell id="whq1Z1M9XGtjdscwXclZ-181" style="edgeStyle=orthogonalEdgeStyle;rounded=0;orthogonalLoop=1;jettySize=auto;html=1;entryX=0.419;entryY=1.121;entryDx=0;entryDy=0;entryPerimeter=0;endArrow=none;startFill=0;" edge="1" parent="WIyWlLk6GJQsqaUBKTNV-1" source="whq1Z1M9XGtjdscwXclZ-173" target="whq1Z1M9XGtjdscwXclZ-178">
          <mxGeometry relative="1" as="geometry" />
        </mxCell>
        <mxCell id="whq1Z1M9XGtjdscwXclZ-182" style="edgeStyle=orthogonalEdgeStyle;rounded=0;orthogonalLoop=1;jettySize=auto;html=1;entryX=0;entryY=0.5;entryDx=0;entryDy=0;" edge="1" parent="WIyWlLk6GJQsqaUBKTNV-1" source="whq1Z1M9XGtjdscwXclZ-184" target="whq1Z1M9XGtjdscwXclZ-159">
          <mxGeometry relative="1" as="geometry" />
        </mxCell>
        <mxCell id="whq1Z1M9XGtjdscwXclZ-183" style="edgeStyle=orthogonalEdgeStyle;rounded=0;orthogonalLoop=1;jettySize=auto;html=1;entryX=0.5;entryY=1;entryDx=0;entryDy=0;" edge="1" parent="WIyWlLk6GJQsqaUBKTNV-1" source="whq1Z1M9XGtjdscwXclZ-184" target="whq1Z1M9XGtjdscwXclZ-173">
          <mxGeometry relative="1" as="geometry" />
        </mxCell>
        <mxCell id="whq1Z1M9XGtjdscwXclZ-184" value="Относятся" style="rhombus;whiteSpace=wrap;html=1;" vertex="1" parent="WIyWlLk6GJQsqaUBKTNV-1">
          <mxGeometry x="1100" y="750" width="80" height="80" as="geometry" />
        </mxCell>
      </root>
    </mxGraphModel>
  </diagram>
</mxfile>
